<svg width="31" height="30" viewBox="0 0 31 30" fill="none" xmlns="http://www.w3.org/2000/svg">
<rect x="0.799988" width="30" height="30" rx="6" fill="#161D6F" fill-opacity="0.7"/>
<path d="M12.3928 7.46847C14.0828 6.18646 15.9172 7.75179 16.3289 10.1883C16.6394 10.1883 16.9428 10.2733 17.2172 10.4291C17.5928 10.0042 17.925 9.42336 17.795 8.77173C17.4917 7.2489 19.2322 6.01647 20.8861 8.1201C22.1933 9.7775 20.5972 11.5766 18.1055 11.9803C18.1055 12.2849 18.0261 12.5894 17.86 12.8586C18.2933 13.2198 18.8855 13.5456 19.55 13.4181C21.0883 13.1206 22.3522 14.8205 20.2072 16.4496C18.5172 17.7316 16.6828 16.1663 16.2711 13.7298C15.9605 13.7298 15.6572 13.6377 15.39 13.4819C15.0144 13.9068 14.675 14.4947 14.805 15.1464C15.1083 16.6621 13.3678 17.9016 11.7139 15.798C10.3994 14.1335 12.0028 12.3344 14.4944 11.9378C14.4944 11.6332 14.5883 11.3357 14.7472 11.0666C14.3139 10.7054 13.7217 10.3725 13.05 10.5C11.5117 10.7974 10.2478 9.09754 12.3928 7.46847ZM11.2444 18.3337H12.6889C13.072 18.3337 13.4394 18.4829 13.7103 18.7486C13.9811 19.0142 14.1333 19.3745 14.1333 19.7502V24H12.6889V22.5834H11.2444V24H9.79999V19.7502C9.79999 19.3745 9.95217 19.0142 10.2231 18.7486C10.4939 18.4829 10.8613 18.3337 11.2444 18.3337ZM11.2444 19.7502V21.1668H12.6889V19.7502H11.2444ZM16.9717 18.3337H18.4667L16.3505 24H14.8555L16.9717 18.3337ZM20.6333 18.3337H22.8V19.7502H20.6333V22.5834H22.8V24H20.6333C20.2502 24 19.8828 23.8508 19.6119 23.5851C19.3411 23.3194 19.1889 22.9591 19.1889 22.5834V19.7502C19.1889 19.3745 19.3411 19.0142 19.6119 18.7486C19.8828 18.4829 20.2502 18.3337 20.6333 18.3337Z" fill="white" fill-opacity="0.85"/>
</svg>
