<svg width="37" height="44" viewBox="0 0 37 44" fill="none" xmlns="http://www.w3.org/2000/svg">
<path d="M7.70132 1.21251C12.4055 -2.10563 17.5117 1.9458 18.6576 8.2521C19.522 8.2521 20.3664 8.47209 21.1303 8.8754C22.1757 7.77546 23.1004 6.27221 22.7386 4.58565C21.8942 0.644211 26.7391 -2.5456 31.3427 2.89908C34.9814 7.18883 30.5386 11.8452 23.603 12.8902C23.603 13.6784 23.3819 14.4667 22.9195 15.1634C24.1257 16.0983 25.7741 16.9416 27.6236 16.6116C31.9056 15.8417 35.4237 20.2414 29.453 24.4578C24.7489 27.776 19.6427 23.7245 18.4968 17.4182C17.6323 17.4182 16.788 17.1799 16.0442 16.7766C14.9988 17.8765 14.0539 19.3981 14.4158 21.0847C15.2601 25.0078 10.4153 28.2159 5.81161 22.7712C2.15282 18.4632 6.61574 13.8068 13.5514 12.7802C13.5514 11.9919 13.8127 11.2219 14.255 10.5253C13.0488 9.59035 11.4003 8.72874 9.53072 9.05872C5.24872 9.82867 1.73065 5.42893 7.70132 1.21251V1.21251ZM4.5049 29.3342H8.52555C9.5919 29.3342 10.6146 29.7205 11.3686 30.4081C12.1226 31.0957 12.5462 32.0282 12.5462 33.0006V44H8.52555V40.3335H4.5049V44H0.484253V33.0006C0.484253 32.0282 0.907856 31.0957 1.66187 30.4081C2.41589 29.7205 3.43856 29.3342 4.5049 29.3342V29.3342ZM4.5049 33.0006V36.6671H8.52555V33.0006H4.5049ZM20.4468 29.3342H24.6082L18.7179 44H14.5565L20.4468 29.3342ZM30.6391 29.3342H36.6701V33.0006H30.6391V40.3335H36.6701V44H30.6391C29.5728 44 28.5501 43.6137 27.7961 42.9261C27.0421 42.2385 26.6185 41.306 26.6185 40.3335V33.0006C26.6185 32.0282 27.0421 31.0957 27.7961 30.4081C28.5501 29.7205 29.5728 29.3342 30.6391 29.3342V29.3342Z" fill="#161D6F" fill-opacity="0.85"/>
</svg>
