<svg width="44" height="37" viewBox="0 0 44 37" fill="none" xmlns="http://www.w3.org/2000/svg">
<g clip-path="url(#clip0_146_40)">
<path d="M36.6665 31.2673H7.33317C5.3165 31.2673 3.6665 29.8946 3.6665 28.2168V8.38884C3.6665 6.71108 5.3165 5.33838 7.33317 5.33838H36.6665C38.6832 5.33838 40.3332 6.71108 40.3332 8.38884V28.2168C40.3332 29.8946 38.6832 31.2673 36.6665 31.2673Z" fill="#8CBCD6"/>
<path d="M32.0835 14.4897C33.6023 14.4897 34.8335 13.4654 34.8335 12.2019C34.8335 10.9384 33.6023 9.91406 32.0835 9.91406C30.5647 9.91406 29.3335 10.9384 29.3335 12.2019C29.3335 13.4654 30.5647 14.4897 32.0835 14.4897Z" fill="#B3DDF5"/>
<path d="M18.3333 12.2019L8.25 24.4037H28.4167L18.3333 12.2019Z" fill="#9AC9E3"/>
<path d="M28.4168 16.7776L21.0835 24.4037H35.7502L28.4168 16.7776Z" fill="#B3DDF5"/>
<path d="M34.8332 36.6053C39.8958 36.6053 43.9998 33.191 43.9998 28.9792C43.9998 24.7674 39.8958 21.353 34.8332 21.353C29.7706 21.353 25.6665 24.7674 25.6665 28.9792C25.6665 33.191 29.7706 36.6053 34.8332 36.6053Z" fill="#161D6F" fill-opacity="0.85"/>
<path d="M33 24.4036H36.6667V33.5549H33V24.4036Z" fill="white"/>
<path d="M29.3335 27.4541H40.3335V30.5046H29.3335V27.4541Z" fill="white"/>
</g>
<defs>
<clipPath id="clip0_146_40">
<rect width="44" height="36.6055" fill="white"/>
</clipPath>
</defs>
</svg>
