<svg width="55" height="54" viewBox="0 0 55 54" fill="none" xmlns="http://www.w3.org/2000/svg">
<path d="M45.5 4.5H9.50001C7.02501 4.5 5.00001 6.525 5.00001 9V45C5.00001 47.475 7.02501 49.5 9.50001 49.5H45.5C47.975 49.5 50 47.475 50 45V9C50 6.525 47.975 4.5 45.5 4.5ZM27.5 40.5C21.56 40.5 15.9575 38.1825 11.75 33.975L14.135 31.59C14.9 32.355 15.7325 33.0525 16.61 33.66L18.5 30.375V21.3975L15.0125 23.625L12.875 21.375L16.25 17.46L14 15.75H22.2125L26.105 22.5H38.75V24.75H36.5V30.375L38.39 33.66C39.2675 33.03 40.1 32.355 40.865 31.59L43.25 33.975C41.1861 36.0493 38.7315 37.6939 36.0281 38.8139C33.3247 39.9339 30.4262 40.5069 27.5 40.5V40.5Z" fill="#161D6F" fill-opacity="0.85"/>
<path d="M33.5525 32.04C29.6346 33.5027 25.3205 33.5027 21.4025 32.04L19.58 35.2125L19.5125 35.3475C21.9875 36.5175 24.6425 37.125 27.455 37.125C30.2675 37.125 32.9675 36.495 35.4425 35.3475L35.375 35.2125L33.5525 32.04V32.04Z" fill="#161D6F" fill-opacity="0.85"/>
</svg>
