<svg width="33" height="32" viewBox="0 0 33 32" fill="none" xmlns="http://www.w3.org/2000/svg">
<path d="M27.1667 12.7427V4H24.5V6.66667H8.49999V4H5.83332V12.7427C4.24666 13.6667 3.16666 15.3667 3.16666 17.3333V22.6667C3.16666 23.0203 3.30713 23.3594 3.55718 23.6095C3.80723 23.8595 4.14637 24 4.49999 24H5.83332V29.3333H8.49999V24H24.5V29.3333H27.1667V24H28.5C28.8536 24 29.1928 23.8595 29.4428 23.6095C29.6929 23.3594 29.8333 23.0203 29.8333 22.6667V17.3333C29.8333 15.3667 28.752 13.6667 27.1667 12.7427ZM24.5 9.33333V12H17.8333V9.33333H24.5ZM8.49999 9.33333H15.1667V12H8.49999V9.33333ZM27.1667 21.3333H5.83332V17.3333C5.83332 15.8627 7.02932 14.6667 8.49999 14.6667H24.5C25.9707 14.6667 27.1667 15.8627 27.1667 17.3333V21.3333Z" fill="#161D6F" fill-opacity="0.8"/>
</svg>
