<svg width="15" height="14" viewBox="0 0 15 14" fill="none" xmlns="http://www.w3.org/2000/svg">
<path d="M4 0.4375C4 0.321468 3.95391 0.210188 3.87186 0.128141C3.78981 0.0460936 3.67853 0 3.5625 0C3.44647 0 3.33519 0.0460936 3.25314 0.128141C3.17109 0.210188 3.125 0.321468 3.125 0.4375V0.875H2.25C1.78587 0.875 1.34075 1.05937 1.01256 1.38756C0.684374 1.71575 0.5 2.16087 0.5 2.625L0.5 3.5H14.5V2.625C14.5 2.16087 14.3156 1.71575 13.9874 1.38756C13.6592 1.05937 13.2141 0.875 12.75 0.875H11.875V0.4375C11.875 0.321468 11.8289 0.210188 11.7469 0.128141C11.6648 0.0460936 11.5535 0 11.4375 0C11.3215 0 11.2102 0.0460936 11.1281 0.128141C11.0461 0.210188 11 0.321468 11 0.4375V0.875H4V0.4375ZM14.5 12.25V4.375H0.5V12.25C0.5 12.7141 0.684374 13.1592 1.01256 13.4874C1.34075 13.8156 1.78587 14 2.25 14H12.75C13.2141 14 13.6592 13.8156 13.9874 13.4874C14.3156 13.1592 14.5 12.7141 14.5 12.25ZM7.9375 7.4375V8.75H9.25C9.36603 8.75 9.47731 8.79609 9.55936 8.87814C9.64141 8.96019 9.6875 9.07147 9.6875 9.1875C9.6875 9.30353 9.64141 9.41481 9.55936 9.49686C9.47731 9.57891 9.36603 9.625 9.25 9.625H7.9375V10.9375C7.9375 11.0535 7.89141 11.1648 7.80936 11.2469C7.72731 11.3289 7.61603 11.375 7.5 11.375C7.38397 11.375 7.27269 11.3289 7.19064 11.2469C7.10859 11.1648 7.0625 11.0535 7.0625 10.9375V9.625H5.75C5.63397 9.625 5.52269 9.57891 5.44064 9.49686C5.35859 9.41481 5.3125 9.30353 5.3125 9.1875C5.3125 9.07147 5.35859 8.96019 5.44064 8.87814C5.52269 8.79609 5.63397 8.75 5.75 8.75H7.0625V7.4375C7.0625 7.32147 7.10859 7.21019 7.19064 7.12814C7.27269 7.04609 7.38397 7 7.5 7C7.61603 7 7.72731 7.04609 7.80936 7.12814C7.89141 7.21019 7.9375 7.32147 7.9375 7.4375Z" fill="white"/>
</svg>
