<svg width="17" height="18" viewBox="0 0 17 18" fill="none" xmlns="http://www.w3.org/2000/svg">
<path d="M4.88 8.50329C4.88 8.36981 4.93303 8.2418 5.02741 8.14741C5.1218 8.05303 5.24981 8 5.38329 8H6.38987C6.52335 8 6.65137 8.05303 6.74575 8.14741C6.84014 8.2418 6.89316 8.36981 6.89316 8.50329V9.50987C6.89316 9.64335 6.84014 9.77136 6.74575 9.86575C6.65137 9.96013 6.52335 10.0132 6.38987 10.0132H5.38329C5.24981 10.0132 5.1218 9.96013 5.02741 9.86575C4.93303 9.77136 4.88 9.64335 4.88 9.50987V8.50329Z" fill="#161D6F" fill-opacity="0.85"/>
<path d="M4.39681 0.947372C4.53029 0.947372 4.6583 1.0004 4.75268 1.09478C4.84707 1.18917 4.90009 1.31718 4.90009 1.45066V1.95395H12.9527V1.45066C12.9527 1.31718 13.0058 1.18917 13.1001 1.09478C13.1945 1.0004 13.3225 0.947372 13.456 0.947372C13.5895 0.947372 13.7175 1.0004 13.8119 1.09478C13.9063 1.18917 13.9593 1.31718 13.9593 1.45066V1.95395H14.9659C15.4998 1.95395 16.0119 2.16605 16.3894 2.54359C16.7669 2.92113 16.979 3.43319 16.979 3.96711V15.0395C16.979 15.5734 16.7669 16.0855 16.3894 16.463C16.0119 16.8405 15.4998 17.0526 14.9659 17.0526H2.88694C2.35301 17.0526 1.84096 16.8405 1.46342 16.463C1.08588 16.0855 0.873779 15.5734 0.873779 15.0395V3.96711C0.873779 3.43319 1.08588 2.92113 1.46342 2.54359C1.84096 2.16605 2.35301 1.95395 2.88694 1.95395H3.89352V1.45066C3.89352 1.31718 3.94654 1.18917 4.04093 1.09478C4.13531 1.0004 4.26332 0.947372 4.39681 0.947372V0.947372ZM1.88036 4.97369V15.0395C1.88036 15.3064 1.98641 15.5625 2.17518 15.7512C2.36395 15.94 2.61998 16.0461 2.88694 16.0461H14.9659C15.2328 16.0461 15.4889 15.94 15.6776 15.7512C15.8664 15.5625 15.9725 15.3064 15.9725 15.0395V4.97369H1.88036Z" fill="#161D6F" fill-opacity="0.85"/>
</svg>
