<svg width="21" height="19" viewBox="0 0 21 19" fill="none" xmlns="http://www.w3.org/2000/svg">
<path d="M16.25 12.375H14.3333V14.2917H16.25V12.375ZM16.25 8.54167H14.3333V10.4583H16.25V8.54167ZM18.1666 16.2083H10.5V14.2917H12.4166V12.375H10.5V10.4583H12.4166V8.54167H10.5V6.625H18.1666V16.2083ZM8.58329 4.70833H6.66663V2.79167H8.58329V4.70833ZM8.58329 8.54167H6.66663V6.625H8.58329V8.54167ZM8.58329 12.375H6.66663V10.4583H8.58329V12.375ZM8.58329 16.2083H6.66663V14.2917H8.58329V16.2083ZM4.74996 4.70833H2.83329V2.79167H4.74996V4.70833ZM4.74996 8.54167H2.83329V6.625H4.74996V8.54167ZM4.74996 12.375H2.83329V10.4583H4.74996V12.375ZM4.74996 16.2083H2.83329V14.2917H4.74996V16.2083ZM10.5 4.70833V0.875H0.916626V18.125H20.0833V4.70833H10.5Z" fill="#161D6F" fill-opacity="0.85"/>
</svg>
