<svg width="31" height="30" viewBox="0 0 31 30" fill="none" xmlns="http://www.w3.org/2000/svg">
<rect x="0.600006" width="30" height="30" rx="6" fill="#161D6F" fill-opacity="0.7"/>
<path d="M9.41441 21.2354H9.20001C8.77566 21.2354 8.36869 21.0742 8.06864 20.7874C7.76858 20.5006 7.60001 20.1116 7.60001 19.7059V10.5294C7.60001 10.1238 7.76858 9.73478 8.06864 9.44796C8.36869 9.16113 8.77566 9 9.20001 9H22C22.4244 9 22.8313 9.16113 23.1314 9.44796C23.4314 9.73478 23.6 10.1238 23.6 10.5294V19.7059C23.6 20.1116 23.4314 20.5006 23.1314 20.7874C22.8313 21.0742 22.4244 21.2354 22 21.2354H21.7856C21.6452 21.4678 21.4432 21.6609 21.2 21.7951C20.9567 21.9293 20.6809 22 20.4 22C20.1192 22 19.8433 21.9293 19.6 21.7951C19.3568 21.6609 19.1548 21.4678 19.0144 21.2354H12.1856C12.0452 21.4678 11.8432 21.6609 11.6 21.7951C11.3567 21.9293 11.0809 22 10.8 22C10.5192 22 10.2433 21.9293 10 21.7951C9.75682 21.6609 9.55484 21.4678 9.41441 21.2354ZM9.20001 10.5294V19.7059H22V10.5294H9.20001ZM10.8 15.1177H20.4V18.1765H10.8V15.1177ZM10.8 12.0588H14.8V13.5883H10.8V12.0588ZM14 15.8824V16.6471H17.2V15.8824H14ZM17.2 13.5883C16.9878 13.5883 16.7843 13.5077 16.6343 13.3643C16.4843 13.2209 16.4 13.0264 16.4 12.8235C16.4 12.6207 16.4843 12.4262 16.6343 12.2828C16.7843 12.1394 16.9878 12.0588 17.2 12.0588C17.4122 12.0588 17.6157 12.1394 17.7657 12.2828C17.9157 12.4262 18 12.6207 18 12.8235C18 13.0264 17.9157 13.2209 17.7657 13.3643C17.6157 13.5077 17.4122 13.5883 17.2 13.5883ZM19.6 13.5883C19.3878 13.5883 19.1843 13.5077 19.0343 13.3643C18.8843 13.2209 18.8 13.0264 18.8 12.8235C18.8 12.6207 18.8843 12.4262 19.0343 12.2828C19.1843 12.1394 19.3878 12.0588 19.6 12.0588C19.8122 12.0588 20.0157 12.1394 20.1657 12.2828C20.3157 12.4262 20.4 12.6207 20.4 12.8235C20.4 13.0264 20.3157 13.2209 20.1657 13.3643C20.0157 13.5077 19.8122 13.5883 19.6 13.5883Z" fill="white"/>
</svg>
