<svg width="17" height="17" viewBox="0 0 17 17" fill="none" xmlns="http://www.w3.org/2000/svg">
<path d="M8.5 0.1875C6.85595 0.1875 5.24881 0.67502 3.88183 1.58841C2.51484 2.5018 1.44941 3.80003 0.820255 5.31894C0.191102 6.83785 0.0264864 8.50922 0.347226 10.1217C0.667966 11.7342 1.45965 13.2153 2.62218 14.3778C3.7847 15.5403 5.26585 16.332 6.87832 16.6528C8.49078 16.9735 10.1621 16.8089 11.6811 16.1797C13.2 15.5506 14.4982 14.4852 15.4116 13.1182C16.325 11.7512 16.8125 10.1441 16.8125 8.5C16.81 6.29616 15.9334 4.1833 14.3751 2.62495C12.8167 1.0666 10.7038 0.190014 8.5 0.1875ZM11.4688 2.03169C12.0975 2.32151 12.6808 2.70134 13.2001 3.15922L12.9549 3.75H11.4688V2.03169ZM6.94319 15.4487C5.65834 15.1632 4.47793 14.5267 3.53339 13.6101C2.58886 12.6934 1.91727 11.5326 1.5934 10.2569C1.26953 8.98118 1.30609 7.6406 1.69901 6.38443C2.09193 5.12826 2.82579 4.00579 3.81888 3.142L4.61985 4.34375H6.60416L5.71354 6.71875H3.3225L2.50194 9.18163L4.0261 11.4688H6.99485L7.8451 12.7435L6.94319 15.4487ZM8.5 15.625C8.37947 15.625 8.26132 15.6131 8.14197 15.6072L8.97144 13.1194C9.0291 12.948 9.04662 12.7656 9.02263 12.5864C8.99864 12.4072 8.9338 12.2359 8.8331 12.0857L7.98285 10.8103C7.87459 10.6474 7.72772 10.5139 7.55533 10.4216C7.38295 10.3293 7.19039 10.2811 6.99485 10.2812H4.66141L3.81116 9.00587L4.1781 7.90625H5.53125V9.09375H6.71875V7.41997L8.462 2.77091L7.3505 2.35409L7.04947 3.15625H5.25516L4.776 2.43781C5.58821 1.93059 6.49581 1.59533 7.44272 1.45276C8.38962 1.3102 9.3557 1.36335 10.2813 1.60894V3.75C10.2816 4.06485 10.4068 4.36671 10.6294 4.58934C10.852 4.81197 11.1539 4.93719 11.4688 4.9375H13.0042C13.1602 4.93792 13.3147 4.90739 13.4588 4.84766C13.603 4.78794 13.7338 4.70021 13.8438 4.58956L13.9269 4.50644L14.0943 4.10269C14.5737 4.71156 14.9503 5.39466 15.2094 6.125H12.4182C12.1375 6.12413 11.8656 6.22308 11.6511 6.40417C11.4366 6.58527 11.2935 6.83671 11.2473 7.11359L10.8928 9.15669C10.8499 9.39869 10.8835 9.64806 10.989 9.87006C11.0944 10.0921 11.2665 10.2756 11.4812 10.3952L12.7667 11.2645L13.6324 13.4293C12.9696 14.1231 12.1732 14.6753 11.291 15.0527C10.4089 15.4301 9.45946 15.6248 8.5 15.625ZM13.7339 10.4855L12.1219 9.39597L12.0625 9.36034L12.4182 7.3125H15.5175C15.8286 9.06434 15.4581 10.8688 14.482 12.3564L13.7339 10.4855Z" fill="#161D6F" fill-opacity="0.85"/>
</svg>
