<svg width="15" height="15" viewBox="0 0 15 15" fill="none" xmlns="http://www.w3.org/2000/svg">
<path d="M14.1797 5.31055C14.2613 5.31055 14.3281 5.24375 14.3281 5.16211V4.04883C14.3281 3.96719 14.2613 3.90039 14.1797 3.90039H11.1367V0.820312C11.1367 0.738672 11.0699 0.671875 10.9883 0.671875H9.80078C9.71914 0.671875 9.65234 0.738672 9.65234 0.820312V3.90039H5.42188V0.820312C5.42188 0.738672 5.35508 0.671875 5.27344 0.671875H4.08594C4.0043 0.671875 3.9375 0.738672 3.9375 0.820312V3.90039H0.820312C0.738672 3.90039 0.671875 3.96719 0.671875 4.04883V5.16211C0.671875 5.24375 0.738672 5.31055 0.820312 5.31055H3.9375V9.68945H0.820312C0.738672 9.68945 0.671875 9.75625 0.671875 9.83789V10.9512C0.671875 11.0328 0.738672 11.0996 0.820312 11.0996H3.9375V14.1797C3.9375 14.2613 4.0043 14.3281 4.08594 14.3281H5.27344C5.35508 14.3281 5.42188 14.2613 5.42188 14.1797V11.0996H9.65234V14.1797C9.65234 14.2613 9.71914 14.3281 9.80078 14.3281H10.9883C11.0699 14.3281 11.1367 14.2613 11.1367 14.1797V11.0996H14.1797C14.2613 11.0996 14.3281 11.0328 14.3281 10.9512V9.83789C14.3281 9.75625 14.2613 9.68945 14.1797 9.68945H11.1367V5.31055H14.1797ZM9.65234 9.68945H5.42188V5.31055H9.65234V9.68945Z" fill="#161D6F" fill-opacity="0.85"/>
</svg>
