<svg width="15" height="15" viewBox="0 0 15 15" fill="none" xmlns="http://www.w3.org/2000/svg">
<path d="M13.4375 14.4766H1.5625C1.28702 14.4763 1.02291 14.3667 0.828119 14.1719C0.633325 13.9771 0.523752 13.713 0.523438 13.4375V6.57517C0.523547 6.4304 0.553846 6.28725 0.612401 6.15486C0.670956 6.02246 0.756479 5.90374 0.863508 5.80626L6.80056 0.408107C6.99139 0.233331 7.24077 0.136382 7.49954 0.136368C7.75831 0.136354 8.0077 0.233277 8.19855 0.408032L14.1365 5.80633H14.1366C14.2436 5.90383 14.3291 6.02256 14.3876 6.15495C14.4461 6.28734 14.4764 6.43048 14.4766 6.57524V13.4375C14.4762 13.713 14.3667 13.9771 14.1719 14.1719C13.9771 14.3667 13.713 14.4763 13.4375 14.4766ZM7.49956 1.0282C7.46258 1.02822 7.42694 1.04207 7.39966 1.06702L1.4626 6.4654C1.44732 6.47932 1.43511 6.49629 1.42675 6.5152C1.4184 6.53411 1.41407 6.55456 1.41406 6.57524V13.4375C1.4141 13.4769 1.42975 13.5146 1.45758 13.5424C1.48541 13.5703 1.52314 13.5859 1.5625 13.5859H13.4375C13.4769 13.5859 13.5146 13.5703 13.5424 13.5424C13.5702 13.5146 13.5859 13.4769 13.5859 13.4375V6.57517C13.5859 6.55447 13.5816 6.53401 13.5732 6.51509C13.5648 6.49616 13.5526 6.47919 13.5373 6.46525L7.59945 1.06702C7.57217 1.04207 7.53653 1.02822 7.49956 1.0282Z" fill="#161D6F" fill-opacity="0.85"/>
</svg>
