<svg width="16" height="13" viewBox="0 0 16 13" fill="none" xmlns="http://www.w3.org/2000/svg">
<path d="M2.72028 0.958334H13.0119C13.6418 0.958334 14.2459 1.20856 14.6913 1.65396C15.1367 2.09935 15.3869 2.70344 15.3869 3.33333V10.4583C15.3869 11.0882 15.1367 11.6923 14.6913 12.1377C14.2459 12.5831 13.6418 12.8333 13.0119 12.8333H2.72028C2.09039 12.8333 1.4863 12.5831 1.0409 12.1377C0.595498 11.6923 0.345276 11.0882 0.345276 10.4583V3.33333C0.345276 2.70344 0.595498 2.09935 1.0409 1.65396C1.4863 1.20856 2.09039 0.958334 2.72028 0.958334ZM2.72028 1.75C2.33394 1.75 1.97928 1.88854 1.70457 2.11892L7.86611 6.12L14.0277 2.11892C13.7431 1.88016 13.3834 1.74951 13.0119 1.75H2.72028ZM7.86611 7.06367L1.24303 2.76333C1.17279 2.94516 1.13683 3.13842 1.13694 3.33333V10.4583C1.13694 10.8783 1.30376 11.281 1.60069 11.5779C1.89762 11.8749 2.30035 12.0417 2.72028 12.0417H13.0119C13.4319 12.0417 13.8346 11.8749 14.1315 11.5779C14.4285 11.281 14.5953 10.8783 14.5953 10.4583V3.33333C14.5953 3.13225 14.5581 2.93988 14.4892 2.76333L7.86611 7.06288V7.06367Z" fill="#161D6F" fill-opacity="0.85"/>
</svg>
