<svg width="34" height="34" viewBox="0 0 34 34" fill="none" xmlns="http://www.w3.org/2000/svg">
<path d="M30.2 12.6655V24.425C30.2 25.519 29.7654 26.5682 28.9918 27.3418C28.2182 28.1154 27.169 28.55 26.075 28.55H7.92499C6.83097 28.55 5.78176 28.1154 5.00817 27.3418C4.23458 26.5682 3.79999 25.519 3.79999 24.425V12.6655L16.5809 20.1862C16.7079 20.261 16.8526 20.3005 17 20.3005C17.1474 20.3005 17.2921 20.261 17.4191 20.1862L30.2 12.6655ZM26.075 7.10001C27.09 7.09985 28.0694 7.47391 28.8259 8.15063C29.5823 8.82735 30.0628 9.75921 30.1752 10.768L17 18.518L3.82474 10.768C3.9372 9.75921 4.41762 8.82735 5.1741 8.15063C5.93058 7.47391 6.91 7.09985 7.92499 7.10001H26.075Z" fill="#161D6F" fill-opacity="0.85"/>
</svg>
