<svg width="25" height="25" viewBox="0 0 25 25" fill="none" xmlns="http://www.w3.org/2000/svg">
<path d="M24.8 6.32708V19.4846C24.8 20.7087 24.4049 21.8826 23.7016 22.7482C22.9984 23.6137 22.0445 24.1 21.05 24.1H4.54999C3.55543 24.1 2.6016 23.6137 1.89834 22.7482C1.19508 21.8826 0.799988 20.7087 0.799988 19.4846V6.32708L12.419 14.7419C12.5344 14.8256 12.666 14.8698 12.8 14.8698C12.934 14.8698 13.0656 14.8256 13.181 14.7419L24.8 6.32708ZM21.05 0.100006C21.9727 0.0998276 22.8631 0.518357 23.5508 1.27553C24.2385 2.03269 24.6753 3.07534 24.7775 4.20401L12.8 12.8754L0.822488 4.20401C0.924725 3.07534 1.36147 2.03269 2.04918 1.27553C2.73689 0.518357 3.62727 0.0998276 4.54999 0.100006H21.05Z" fill="#161D6F" fill-opacity="0.85"/>
</svg>
