<svg width="24" height="24" viewBox="0 0 24 24" fill="none" xmlns="http://www.w3.org/2000/svg">
<path d="M12 0.5C9.10042 0.5 6.75 3.14422 6.75 6.40625C6.75 9.04344 10.1813 13.85 11.4958 15.5947C11.7621 15.9481 12.2383 15.9481 12.5042 15.5947C13.8188 13.85 17.25 9.04344 17.25 6.40625C17.25 3.14422 14.8996 0.5 12 0.5ZM12 8.375C11.0333 8.375 10.25 7.49375 10.25 6.40625C10.25 5.31875 11.0333 4.4375 12 4.4375C12.9667 4.4375 13.75 5.31875 13.75 6.40625C13.75 7.49375 12.9667 8.375 12 8.375ZM0.838333 10.6227C0.590908 10.734 0.378804 10.9262 0.229379 11.1744C0.0799536 11.4226 5.92587e-05 11.7155 0 12.0153L0 23.7491C0 24.2797 0.47625 24.6425 0.914167 24.4456L6.66667 21.5V10.5744C6.29833 9.82531 5.99708 9.09594 5.78125 8.39844L0.838333 10.6227ZM12 17.3595C11.4137 17.3595 10.8592 17.0698 10.4788 16.5645C9.65958 15.477 8.78833 14.2386 8 12.9683V21.4995L16 24.4995V12.9688C15.2117 14.2386 14.3408 15.4775 13.5213 16.565C13.1408 17.0698 12.5863 17.3595 12 17.3595ZM23.0858 8.05438L17.3333 11V24.5L23.1617 21.8773C23.4091 21.7661 23.6213 21.5739 23.7707 21.3257C23.9201 21.0774 24 20.7845 24 20.4847V8.75094C24 8.22031 23.5238 7.8575 23.0858 8.05438Z" fill="#161D6F" fill-opacity="0.85"/>
</svg>
