<svg width="17" height="17" viewBox="0 0 17 17" fill="none" xmlns="http://www.w3.org/2000/svg">
<path d="M8.5 1.375C9.9092 1.375 11.2867 1.79287 12.4584 2.57578C13.6301 3.35868 14.5434 4.47146 15.0826 5.77338C15.6219 7.0753 15.763 8.5079 15.4881 9.89002C15.2132 11.2721 14.5346 12.5417 13.5381 13.5381C12.5417 14.5346 11.2721 15.2132 9.89002 15.4881C8.50791 15.763 7.07531 15.6219 5.77338 15.0826C4.47146 14.5434 3.35869 13.6301 2.57578 12.4584C1.79288 11.2867 1.375 9.90919 1.375 8.5C1.375 6.61033 2.12567 4.79806 3.46187 3.46186C4.79806 2.12567 6.61034 1.375 8.5 1.375ZM8.5 0.1875C6.85595 0.1875 5.24881 0.67502 3.88183 1.58841C2.51484 2.5018 1.44941 3.80003 0.820255 5.31894C0.191102 6.83785 0.0264864 8.50922 0.347226 10.1217C0.667966 11.7342 1.45965 13.2153 2.62218 14.3778C3.7847 15.5403 5.26585 16.332 6.87832 16.6528C8.49078 16.9735 10.1621 16.8089 11.6811 16.1797C13.2 15.5506 14.4982 14.4852 15.4116 13.1182C16.325 11.7512 16.8125 10.1441 16.8125 8.5C16.8125 6.29539 15.9367 4.18107 14.3778 2.62217C12.8189 1.06328 10.7046 0.1875 8.5 0.1875Z" fill="#161D6F" fill-opacity="0.85"/>
<path d="M12.6562 5.18094L11.8191 4.34375L9.26594 6.89688C8.93355 6.73813 8.56012 6.68633 8.19707 6.74862C7.83402 6.81091 7.49921 6.98422 7.23875 7.24469C6.97828 7.50515 6.80497 7.83996 6.74268 8.20301C6.6804 8.56605 6.73219 8.93948 6.89094 9.27187L4.34375 11.8191L5.18094 12.6562L7.73406 10.1031C8.06645 10.2619 8.43988 10.3137 8.80293 10.2514C9.16598 10.1891 9.50079 10.0158 9.76125 9.75531C10.0217 9.49485 10.195 9.16004 10.2573 8.79699C10.3196 8.43394 10.2678 8.06051 10.1091 7.72812L12.6562 5.18094ZM9.09375 8.5C9.09375 8.61743 9.05893 8.73223 8.99369 8.82987C8.92844 8.92751 8.83571 9.00361 8.72722 9.04855C8.61872 9.09349 8.49934 9.10525 8.38417 9.08234C8.26899 9.05943 8.16319 9.00288 8.08016 8.91985C7.99712 8.83681 7.94057 8.73101 7.91766 8.61584C7.89475 8.50066 7.90651 8.38128 7.95145 8.27278C7.99639 8.16429 8.07249 8.07156 8.17013 8.00631C8.26777 7.94107 8.38257 7.90625 8.5 7.90625C8.65747 7.90625 8.8085 7.96881 8.91985 8.08016C9.03119 8.19151 9.09375 8.34253 9.09375 8.5Z" fill="#161D6F" fill-opacity="0.85"/>
<path d="M8.5 4.34375C8.99188 4.34375 9.39062 3.945 9.39062 3.45312C9.39062 2.96125 8.99188 2.5625 8.5 2.5625C8.00812 2.5625 7.60938 2.96125 7.60938 3.45312C7.60938 3.945 8.00812 4.34375 8.5 4.34375Z" fill="#161D6F" fill-opacity="0.85"/>
</svg>
