<svg width="41" height="41" viewBox="0 0 41 41" fill="none" xmlns="http://www.w3.org/2000/svg">
<path d="M36.2143 0H4.78571C2.41964 0 0.5 1.93164 0.5 4.3125V35.9375C0.5 38.3184 2.41964 40.25 4.78571 40.25H36.2143C38.5804 40.25 40.5 38.3184 40.5 35.9375V4.3125C40.5 1.93164 38.5804 0 36.2143 0ZM21.9286 25.875H17.6429V30.1875C17.6429 30.9781 17 31.625 16.2143 31.625H13.3571C12.5714 31.625 11.9286 30.9781 11.9286 30.1875V10.0625C11.9286 9.27187 12.5714 8.625 13.3571 8.625H21.9286C26.6518 8.625 30.5 12.4973 30.5 17.25C30.5 22.0027 26.6518 25.875 21.9286 25.875ZM21.9286 14.375H17.6429V20.125H21.9286C23.5 20.125 24.7857 18.8313 24.7857 17.25C24.7857 15.6687 23.5 14.375 21.9286 14.375Z" fill="#161D6F" fill-opacity="0.85"/>
</svg>
