<svg width="31" height="30" viewBox="0 0 31 30" fill="none" xmlns="http://www.w3.org/2000/svg">
<rect x="0.400009" width="30" height="30" rx="6" fill="#161D6F" fill-opacity="0.7"/>
<path d="M16.19 9.5C17.12 9.5 17.925 9.655 18.605 9.965C19.295 10.275 19.825 10.715 20.195 11.285C20.565 11.855 20.75 12.53 20.75 13.31C20.75 14.08 20.565 14.755 20.195 15.335C19.825 15.905 19.295 16.345 18.605 16.655C17.925 16.955 17.12 17.105 16.19 17.105H14.075V20H11.645V9.5H16.19ZM16.055 15.125C16.785 15.125 17.34 14.97 17.72 14.66C18.1 14.34 18.29 13.89 18.29 13.31C18.29 12.72 18.1 12.27 17.72 11.96C17.34 11.64 16.785 11.48 16.055 11.48H14.075V15.125H16.055Z" fill="white"/>
</svg>
