<svg width="15" height="15" viewBox="0 0 15 15" fill="none" xmlns="http://www.w3.org/2000/svg">
<path d="M13.1222 2.43519L14.637 0.920375L13.8416 0.125L12.3268 1.63981L11.712 1.025C11.6104 0.918327 11.4882 0.833399 11.3529 0.775369C11.2175 0.717339 11.0717 0.687416 10.9245 0.687416C10.7772 0.687416 10.6314 0.717339 10.4961 0.775369C10.3607 0.833399 10.2385 0.918327 10.137 1.025L0.0119629 11.15V14.75H3.61196L13.737 4.625C13.8436 4.52344 13.9286 4.40127 13.9866 4.2659C14.0446 4.13053 14.0745 3.98478 14.0745 3.8375C14.0745 3.69022 14.0446 3.54447 13.9866 3.4091C13.9286 3.27373 13.8436 3.15156 13.737 3.05L13.1222 2.43519ZM3.16196 13.625H1.13696V11.6L10.9245 1.8125L12.9495 3.8375L3.16196 13.625Z" fill="#161D6F" fill-opacity="0.85"/>
<path d="M2.82446 5.51713L7.09159 1.25L7.88696 2.04537L3.61984 6.3125L2.82446 5.51713Z" fill="#161D6F" fill-opacity="0.85"/>
</svg>
