<svg width="15" height="16" viewBox="0 0 15 16" fill="none" xmlns="http://www.w3.org/2000/svg">
<path d="M14.2743 3.20256L12.2982 1.22834C12.057 0.987134 11.7342 0.851685 11.3928 0.851685C11.0514 0.851685 10.7285 0.985278 10.4873 1.22834L8.35908 3.35286C8.11787 3.59407 7.98242 3.91877 7.98242 4.26018C7.98242 4.60344 8.11602 4.92444 8.35908 5.1675L10.0216 6.83186C9.64285 7.71429 9.09868 8.51606 8.41846 9.19387C7.7375 9.87854 6.9415 10.4185 6.0583 10.8007L4.3958 9.13635C4.15459 8.89514 3.83174 8.75969 3.49033 8.75969C3.32194 8.75907 3.15511 8.79206 2.99963 8.85674C2.84414 8.92142 2.70314 9.01648 2.58486 9.13635L0.454785 11.2609C0.213574 11.5021 0.078125 11.8268 0.078125 12.1682C0.078125 12.5115 0.211719 12.8324 0.454785 13.0755L2.429 15.0497C2.84092 15.4616 3.40869 15.6973 3.99131 15.6973C4.11191 15.6973 4.22881 15.688 4.34756 15.6676C6.8042 15.2631 9.24228 13.955 11.2109 11.9882C13.1777 10.0177 14.484 7.57961 14.8922 5.12112C15.0091 4.42346 14.7753 3.7054 14.2743 3.20256ZM13.5767 4.90032C13.2148 7.08792 12.0385 9.26995 10.2665 11.0419C8.49453 12.8139 6.31436 13.9903 4.12676 14.3521C3.85215 14.3985 3.57012 14.3057 3.36973 14.1072L1.43076 12.1682L3.48662 10.1105L5.70947 12.337L5.72617 12.3537L6.12695 12.2053C7.34215 11.7585 8.44567 11.0528 9.36102 10.1372C10.2764 9.22148 10.9817 8.11772 11.428 6.90237L11.5765 6.50159L9.33506 4.26204L11.3909 2.20432L13.3299 4.14329C13.5303 4.34368 13.623 4.62571 13.5767 4.90032Z" fill="#161D6F" fill-opacity="0.85"/>
</svg>
