<svg width="375" height="199" viewBox="0 0 375 199" fill="none" xmlns="http://www.w3.org/2000/svg">
<path fill-rule="evenodd" clip-rule="evenodd" d="M0 178.284L41.3067 186.207C86.744 194.131 173.488 207.998 260.232 190.169C342.845 172.341 429.589 118.856 516.333 114.894C603.077 112.913 689.821 156.493 776.565 148.57C859.179 142.627 945.923 81.2181 1032.67 67.3516C1119.41 51.5042 1206.15 81.2181 1292.9 104.989C1375.51 126.779 1462.26 142.627 1507.69 148.57L1549 156.493V0H1507.69C1462.26 0 1375.51 0 1292.9 0C1206.15 0 1119.41 0 1032.67 0C945.923 0 859.179 0 776.565 0C689.821 0 603.077 0 516.333 0C429.589 0 342.845 0 260.232 0C173.488 0 86.744 0 41.3067 0H0V178.284Z" fill="url(#paint0_linear_212_379)" fill-opacity="0.85"/>
<defs>
<linearGradient id="paint0_linear_212_379" x1="774.5" y1="0" x2="774.5" y2="198.857" gradientUnits="userSpaceOnUse">
<stop stop-color="#161D6F"/>
<stop offset="1" stop-color="#161D6F" stop-opacity="0.85"/>
</linearGradient>
</defs>
</svg>
