<svg width="375" height="176" viewBox="0 0 375 176" fill="none" xmlns="http://www.w3.org/2000/svg">
<g clip-path="url(#clip0_1509_269)">
<path fill-rule="evenodd" clip-rule="evenodd" d="M0 141.653L41.3067 147.949C86.744 154.245 173.488 165.262 260.232 151.097C342.845 136.932 429.589 94.4355 516.333 91.2877C603.077 89.7138 689.821 124.34 776.565 118.044C859.179 113.323 945.923 64.531 1032.67 53.5135C1119.41 40.9221 1206.15 64.531 1292.9 83.4181C1375.51 100.731 1462.26 113.323 1507.69 118.044L1549 124.34V0H1507.69C1462.26 0 1375.51 0 1292.9 0C1206.15 0 1119.41 0 1032.67 0C945.923 0 859.179 0 776.565 0C689.821 0 603.077 0 516.333 0C429.589 0 342.845 0 260.232 0C173.488 0 86.744 0 41.3067 0H0V141.653Z" fill="url(#paint0_linear_1509_269)" fill-opacity="0.85"/>
</g>
<defs>
<linearGradient id="paint0_linear_1509_269" x1="774.5" y1="0" x2="774.5" y2="158" gradientUnits="userSpaceOnUse">
<stop stop-color="#161D6F"/>
<stop offset="1" stop-color="#161D6F" stop-opacity="0.85"/>
</linearGradient>
<clipPath id="clip0_1509_269">
<rect width="375" height="176" fill="white"/>
</clipPath>
</defs>
</svg>
