<svg width="12" height="12" viewBox="0 0 12 12" fill="none" xmlns="http://www.w3.org/2000/svg">
<path d="M11.5009 5.55368L1.42961 0.0528143C1.35067 0.00969082 1.26201 -0.00758782 1.17429 0.00305893C1.08657 0.0137057 1.00354 0.0518239 0.935199 0.112824C0.86993 0.172579 0.821213 0.251039 0.794525 0.339381C0.767838 0.427724 0.764237 0.522447 0.784129 0.612903L1.99727 5.49868H7.17485V6.49883H1.99727L0.765818 11.3696C0.747152 11.4451 0.744973 11.5244 0.759456 11.601C0.77394 11.6777 0.804681 11.7495 0.849208 11.8108C0.893735 11.8721 0.950806 11.9211 1.01583 11.9539C1.08086 11.9867 1.15202 12.0024 1.22361 11.9997C1.29527 11.9992 1.36583 11.9804 1.42961 11.9447L11.5009 6.44382C11.5759 6.40186 11.6389 6.3381 11.6828 6.25957C11.7267 6.18104 11.75 6.09079 11.75 5.99875C11.75 5.90672 11.7267 5.81646 11.6828 5.73794C11.6389 5.65941 11.5759 5.59565 11.5009 5.55368Z" fill="white"/>
</svg>
