<svg width="17" height="15" viewBox="0 0 17 15" fill="none" xmlns="http://www.w3.org/2000/svg">
<path d="M13.8438 9.46875C13.3174 9.46944 12.8061 9.64466 12.3899 9.96698C11.9738 10.2893 11.6762 10.7405 11.5439 11.25H4.34375C3.71386 11.25 3.10977 10.9998 2.66437 10.5544C2.21897 10.109 1.96875 9.50489 1.96875 8.875C1.96875 8.24511 2.21897 7.64102 2.66437 7.19562C3.10977 6.75022 3.71386 6.5 4.34375 6.5H11.4688C12.2561 6.5 13.0112 6.18722 13.568 5.63047C14.1247 5.07372 14.4375 4.31861 14.4375 3.53125C14.4375 2.74389 14.1247 1.98878 13.568 1.43203C13.0112 0.875278 12.2561 0.5625 11.4688 0.5625H4.34375C4.18628 0.5625 4.03526 0.625056 3.92391 0.736405C3.81256 0.847755 3.75 0.998778 3.75 1.15625C3.75 1.31372 3.81256 1.46474 3.92391 1.57609C4.03526 1.68744 4.18628 1.75 4.34375 1.75H11.4688C11.9412 1.75 12.3942 1.93767 12.7283 2.27172C13.0623 2.60577 13.25 3.05883 13.25 3.53125C13.25 4.00367 13.0623 4.45673 12.7283 4.79078C12.3942 5.12483 11.9412 5.3125 11.4688 5.3125H4.34375C3.39892 5.3125 2.49278 5.68783 1.82468 6.35593C1.15658 7.02403 0.78125 7.93017 0.78125 8.875C0.78125 9.81983 1.15658 10.726 1.82468 11.3941C2.49278 12.0622 3.39892 12.4375 4.34375 12.4375H11.5439C11.655 12.8676 11.8844 13.258 12.2062 13.5643C12.5279 13.8706 12.9292 14.0805 13.3643 14.1702C13.7994 14.2598 14.2509 14.2257 14.6675 14.0716C15.0842 13.9175 15.4493 13.6497 15.7214 13.2985C15.9934 12.9473 16.1615 12.5268 16.2066 12.0849C16.2517 11.6429 16.1719 11.1972 15.9763 10.7983C15.7808 10.3994 15.4773 10.0634 15.1003 9.82838C14.7233 9.59335 14.288 9.46876 13.8438 9.46875ZM13.8438 13.0312C13.6089 13.0312 13.3793 12.9616 13.184 12.8311C12.9887 12.7006 12.8365 12.5152 12.7466 12.2982C12.6568 12.0812 12.6332 11.8424 12.6791 11.6121C12.7249 11.3817 12.838 11.1701 13.0041 11.0041C13.1701 10.838 13.3817 10.7249 13.6121 10.6791C13.8424 10.6332 14.0812 10.6568 14.2982 10.7466C14.5152 10.8365 14.7006 10.9887 14.8311 11.184C14.9616 11.3793 15.0312 11.6089 15.0312 11.8438C15.0309 12.1586 14.9057 12.4604 14.683 12.683C14.4604 12.9057 14.1586 13.0309 13.8438 13.0312Z" fill="#161D6F" fill-opacity="0.85"/>
</svg>
