<svg width="23" height="18" viewBox="0 0 23 18" fill="none" xmlns="http://www.w3.org/2000/svg">
<path d="M1.07812 17.4375H19.4062C20.1062 17.4377 20.7823 17.2381 21.3076 16.8761C21.8329 16.514 22.1714 16.0144 22.2596 15.471C22.3478 14.9276 22.1796 14.3776 21.7866 13.9243C21.3936 13.4709 20.8028 13.1454 20.125 13.0087V12.9375H20.4844C20.5797 12.9375 20.6711 12.9079 20.7385 12.8551C20.8059 12.8024 20.8438 12.7308 20.8438 12.6562V11.5312C20.8438 11.4567 20.8059 11.3851 20.7385 11.3324C20.6711 11.2796 20.5797 11.25 20.4844 11.25H20.125V10.6875H20.4844C20.5797 10.6875 20.6711 10.6579 20.7385 10.6051C20.8059 10.5524 20.8438 10.4808 20.8438 10.4062V9.28125C20.8438 9.20666 20.8059 9.13512 20.7385 9.08238C20.6711 9.02963 20.5797 9 20.4844 9H17.25V1.40625C17.25 1.33166 17.2121 1.26012 17.1447 1.20738C17.0773 1.15463 16.9859 1.125 16.8906 1.125H15.0018L15.0786 0.924609C15.0947 0.88261 15.0981 0.838245 15.0884 0.795056C15.0787 0.751868 15.0562 0.711053 15.0227 0.675871C14.9893 0.640689 14.9458 0.612114 14.8957 0.59243C14.8457 0.572745 14.7904 0.562496 14.7344 0.5625H13.2969C13.2214 0.562496 13.1479 0.581066 13.0867 0.61558C13.0255 0.650094 12.9798 0.698803 12.9559 0.754805L12.7982 1.125H5.17051L5.01283 0.754805C4.98898 0.698803 4.94321 0.650094 4.88202 0.61558C4.82082 0.581066 4.7473 0.562496 4.67188 0.5625H3.23438C3.17834 0.562496 3.12309 0.572745 3.07302 0.59243C3.02295 0.612114 2.97946 0.640689 2.94601 0.675871C2.91256 0.711053 2.89009 0.751868 2.88039 0.795056C2.87069 0.838245 2.87403 0.88261 2.89014 0.924609L2.967 1.125H1.07812C0.982813 1.125 0.891404 1.15463 0.824008 1.20738C0.756613 1.26012 0.71875 1.33166 0.71875 1.40625V17.1562C0.71875 17.2308 0.756613 17.3024 0.824008 17.3551C0.891404 17.4079 0.982813 17.4375 1.07812 17.4375ZM15.0938 15.75V15.1875H16.5312C16.5311 15.3773 16.5617 15.5663 16.6222 15.75H15.0938ZM15.0938 13.5V12.9375H19.4062C18.7068 12.9372 18.0315 13.1373 17.5077 13.5H15.0938ZM16.918 14.0625C16.7871 14.2386 16.6876 14.4278 16.6222 14.625H15.8125V14.0625H16.918ZM15.0938 11.25V10.6875H19.4062V11.25H15.0938ZM15.0938 10.125H14.7344C14.6391 10.125 14.5477 10.1546 14.4803 10.2074C14.4129 10.2601 14.375 10.3317 14.375 10.4062V11.5312C14.375 11.6058 14.4129 11.6774 14.4803 11.7301C14.5477 11.7829 14.6391 11.8125 14.7344 11.8125H15.0938V12.375H14.7344C14.6391 12.375 14.5477 12.4046 14.4803 12.4574C14.4129 12.5101 14.375 12.5817 14.375 12.6562V13.7812C14.375 13.8558 14.4129 13.9274 14.4803 13.9801C14.5477 14.0329 14.6391 14.0625 14.7344 14.0625H15.0938V14.625H14.7344C14.6391 14.625 14.5477 14.6546 14.4803 14.7074C14.4129 14.7601 14.375 14.8317 14.375 14.9062V15.75H2.875V3.375H3.8295L3.96826 3.73711C3.99048 3.79504 4.03597 3.84582 4.09798 3.88192C4.15999 3.91801 4.23522 3.93751 4.3125 3.9375H13.6562C13.7335 3.93751 13.8088 3.91801 13.8708 3.88192C13.9328 3.84582 13.9783 3.79504 14.0005 3.73711L14.1393 3.375H15.0938V10.125ZM15.8125 16.875V16.3125H16.918C17.0746 16.5236 17.2737 16.7136 17.5077 16.875H15.8125ZM21.5625 15.1875C21.5625 15.5213 21.436 15.8475 21.1991 16.125C20.9622 16.4025 20.6254 16.6188 20.2314 16.7465C19.8374 16.8743 19.4039 16.9077 18.9856 16.8426C18.5673 16.7775 18.1831 16.6167 17.8815 16.3807C17.58 16.1447 17.3746 15.8441 17.2914 15.5167C17.2082 15.1894 17.2509 14.8501 17.4141 14.5417C17.5773 14.2334 17.8537 13.9698 18.2083 13.7844C18.5629 13.599 18.9798 13.5 19.4062 13.5C19.9779 13.5005 20.526 13.6785 20.9302 13.9948C21.3345 14.3112 21.5619 14.7401 21.5625 15.1875ZM20.125 12.375H15.8125V11.8125H20.125V12.375ZM20.125 9.5625V10.125H15.8125V9.5625H20.125ZM14.7862 1.6875H16.5312V9H15.8125V3.09375C15.8125 3.01916 15.7746 2.94762 15.7072 2.89488C15.6398 2.84213 15.5484 2.8125 15.4531 2.8125H14.3549L14.7862 1.6875ZM12.5587 1.6875L12.3191 2.25H5.64964L5.41008 1.6875H12.5587ZM4.41286 1.125L5.04971 2.6202C5.07357 2.67619 5.11932 2.7249 5.18051 2.75941C5.24169 2.79392 5.3152 2.8125 5.39062 2.8125H12.5781C12.6536 2.8125 12.7271 2.79393 12.7883 2.75942C12.8495 2.72491 12.8952 2.6762 12.9191 2.6202L13.5559 1.125H14.2514L13.3889 3.375H4.5797L3.7172 1.125H4.41286ZM1.4375 1.6875H3.18263L3.61387 2.8125H2.51562C2.42031 2.8125 2.3289 2.84213 2.26151 2.89488C2.19411 2.94762 2.15625 3.01916 2.15625 3.09375V16.0312C2.15625 16.1058 2.19411 16.1774 2.26151 16.2301C2.3289 16.2829 2.42031 16.3125 2.51562 16.3125H15.0938V16.875H1.4375V1.6875Z" fill="#161D6F" fill-opacity="0.85"/>
<path d="M7.1875 5.625C7.1875 5.55041 7.14964 5.47887 7.08224 5.42613C7.01485 5.37338 6.92344 5.34375 6.82812 5.34375H4.67188C4.57656 5.34375 4.48515 5.37338 4.41776 5.42613C4.35036 5.47887 4.3125 5.55041 4.3125 5.625C4.3125 5.69959 4.35036 5.77113 4.41776 5.82387C4.48515 5.87662 4.57656 5.90625 4.67188 5.90625H5.39062V7.875C5.39062 7.94959 5.42849 8.02113 5.49588 8.07387C5.56328 8.12662 5.65469 8.15625 5.75 8.15625C5.84531 8.15625 5.93672 8.12662 6.00412 8.07387C6.07151 8.02113 6.10938 7.94959 6.10938 7.875V5.90625H6.82812C6.92344 5.90625 7.01485 5.87662 7.08224 5.82387C7.14964 5.77113 7.1875 5.69959 7.1875 5.625Z" fill="#161D6F" fill-opacity="0.85"/>
<path d="M7.90625 8.15626C8.00156 8.15626 8.09297 8.12663 8.16037 8.07388C8.22776 8.02114 8.26562 7.9496 8.26562 7.87501V7.59376H9.70312V7.87501C9.70312 7.9496 9.74099 8.02114 9.80838 8.07388C9.87578 8.12663 9.96719 8.15626 10.0625 8.15626C10.1578 8.15626 10.2492 8.12663 10.3166 8.07388C10.384 8.02114 10.4219 7.9496 10.4219 7.87501V7.31251C10.4219 7.26884 10.4089 7.22577 10.3839 7.18672L9.30579 5.49922C9.27594 5.45251 9.23006 5.41323 9.17329 5.38578C9.11652 5.35832 9.05111 5.34378 8.98438 5.34378C8.91764 5.34378 8.85223 5.35832 8.79546 5.38578C8.73869 5.41323 8.69281 5.45251 8.66296 5.49922L7.58483 7.18672C7.55986 7.22577 7.54686 7.26884 7.54688 7.31251V7.87501C7.54688 7.9496 7.58474 8.02114 7.65213 8.07388C7.71953 8.12663 7.81094 8.15626 7.90625 8.15626ZM8.98438 6.25392L9.48103 7.03126H8.48772L8.98438 6.25392Z" fill="#161D6F" fill-opacity="0.85"/>
<path d="M13.4873 5.3865C13.4473 5.36693 13.4028 5.35371 13.3562 5.34761C13.3097 5.34151 13.2621 5.34265 13.2161 5.35095C13.1701 5.35926 13.1266 5.37457 13.0882 5.39601C13.0498 5.41746 13.0171 5.44462 12.9921 5.47594L12.3984 6.21932L11.8048 5.47594C11.7797 5.44462 11.7471 5.41746 11.7087 5.39602C11.6702 5.37457 11.6268 5.35926 11.5808 5.35095C11.5348 5.34265 11.4872 5.34151 11.4407 5.34761C11.3941 5.35371 11.3496 5.36693 11.3095 5.3865C11.2695 5.40608 11.2348 5.43163 11.2074 5.4617C11.18 5.49177 11.1604 5.52577 11.1498 5.56176C11.1392 5.59775 11.1378 5.63502 11.1456 5.67145C11.1534 5.70787 11.1702 5.74274 11.1953 5.77406L11.9746 6.75L11.1953 7.72594C11.1702 7.75726 11.1534 7.79213 11.1456 7.82856C11.1378 7.86498 11.1392 7.90225 11.1498 7.93824C11.1604 7.97423 11.18 8.00823 11.2074 8.0383C11.2348 8.06837 11.2695 8.09393 11.3095 8.1135C11.3496 8.13308 11.3941 8.14629 11.4407 8.15239C11.4872 8.15849 11.5348 8.15735 11.5808 8.14905C11.6268 8.14074 11.6702 8.12543 11.7087 8.10399C11.7471 8.08254 11.7797 8.05538 11.8048 8.02406L12.3984 7.28086L12.9921 8.02424C13.0171 8.05556 13.0498 8.08272 13.0882 8.10416C13.1266 8.12561 13.1701 8.14092 13.2161 8.14922C13.2621 8.15753 13.3097 8.15867 13.3562 8.15257C13.4028 8.14647 13.4473 8.13325 13.4873 8.11368C13.5274 8.0941 13.5621 8.06855 13.5895 8.03848C13.6169 8.00841 13.6364 7.97441 13.647 7.93842C13.6577 7.90243 13.6591 7.86516 13.6513 7.82873C13.6435 7.7923 13.6266 7.75743 13.6016 7.72611L12.8222 6.75L13.6016 5.77406C13.6266 5.74274 13.6435 5.70787 13.6513 5.67145C13.6591 5.63502 13.6577 5.59775 13.6471 5.56176C13.6364 5.52577 13.6169 5.49177 13.5895 5.4617C13.5621 5.43163 13.5274 5.40608 13.4873 5.3865Z" fill="#161D6F" fill-opacity="0.85"/>
<path d="M11.3835 9.35507C11.3133 9.3047 11.2203 9.27822 11.1251 9.28145C11.0299 9.28469 10.9403 9.31738 10.8759 9.37233L6.92276 12.7473C6.89086 12.7746 6.86613 12.8064 6.84997 12.8411C6.83381 12.8758 6.82654 12.9127 6.82858 12.9496C6.83063 12.9865 6.84194 13.0227 6.86187 13.0562C6.8818 13.0897 6.90996 13.1198 6.94475 13.1448C6.97954 13.1697 7.02027 13.1891 7.06462 13.2017C7.10896 13.2144 7.15606 13.2201 7.20322 13.2185C7.25037 13.2169 7.29666 13.208 7.33945 13.1924C7.38223 13.1768 7.42067 13.1548 7.45257 13.1275L11.4057 9.75255C11.4376 9.72531 11.4623 9.69342 11.4785 9.65871C11.4946 9.62399 11.5019 9.58712 11.4998 9.55021C11.4978 9.5133 11.4864 9.47706 11.4665 9.44358C11.4465 9.4101 11.4183 9.38002 11.3835 9.35507Z" fill="#161D6F" fill-opacity="0.85"/>
<path d="M8.625 10.125C8.625 9.95812 8.56177 9.79499 8.4433 9.65624C8.32484 9.51748 8.15646 9.40934 7.95946 9.34548C7.76245 9.28162 7.54568 9.26491 7.33654 9.29746C7.12741 9.33002 6.9353 9.41038 6.78453 9.52838C6.63375 9.64638 6.53107 9.79672 6.48947 9.96039C6.44787 10.1241 6.46922 10.2937 6.55082 10.4479C6.63242 10.6021 6.7706 10.7338 6.9479 10.8266C7.1252 10.9193 7.33364 10.9688 7.54688 10.9688C7.83271 10.9685 8.10675 10.8795 8.30887 10.7213C8.51099 10.5632 8.62468 10.3487 8.625 10.125ZM7.1875 10.125C7.1875 10.0694 7.20858 10.015 7.24807 9.96875C7.28755 9.9225 7.34368 9.88645 7.40935 9.86516C7.47502 9.84387 7.54727 9.8383 7.61699 9.84915C7.6867 9.86001 7.75073 9.88679 7.80099 9.92613C7.85125 9.96546 7.88548 10.0156 7.89935 10.0701C7.91321 10.1247 7.90609 10.1812 7.87889 10.2326C7.85169 10.284 7.80563 10.3279 7.74653 10.3589C7.68743 10.3898 7.61795 10.4063 7.54688 10.4063C7.4516 10.4062 7.36025 10.3765 7.29288 10.3238C7.2255 10.2711 7.18761 10.1996 7.1875 10.125Z" fill="#161D6F" fill-opacity="0.85"/>
<path d="M10.4219 11.5312C10.2086 11.5312 10.0002 11.5807 9.8229 11.6734C9.64561 11.7662 9.50742 11.8979 9.42582 12.0521C9.34422 12.2063 9.32287 12.3759 9.36447 12.5396C9.40607 12.7033 9.50875 12.8536 9.65953 12.9716C9.8103 13.0896 10.0024 13.17 10.2115 13.2025C10.4207 13.2351 10.6375 13.2184 10.8345 13.1545C11.0315 13.0907 11.1998 12.9825 11.3183 12.8438C11.4368 12.705 11.5 12.5419 11.5 12.375C11.4997 12.1513 11.386 11.9368 11.1839 11.7787C10.9818 11.6205 10.7077 11.5315 10.4219 11.5312ZM10.4219 12.6562C10.3508 12.6562 10.2813 12.6398 10.2222 12.6089C10.1631 12.5779 10.1171 12.534 10.0899 12.4826C10.0627 12.4312 10.0555 12.3747 10.0694 12.3201C10.0833 12.2656 10.1175 12.2155 10.1678 12.1761C10.218 12.1368 10.2821 12.11 10.3518 12.0992C10.4215 12.0883 10.4937 12.0939 10.5594 12.1152C10.6251 12.1364 10.6812 12.1725 10.7207 12.2187C10.7602 12.265 10.7813 12.3194 10.7813 12.375C10.7811 12.4496 10.7432 12.5211 10.6759 12.5738C10.6085 12.6265 10.5172 12.6562 10.4219 12.6562Z" fill="#161D6F" fill-opacity="0.85"/>
<path d="M19.0469 14.3438V14.4199C18.9099 14.4817 18.8028 14.5772 18.7422 14.6916C18.6817 14.8059 18.671 14.9327 18.712 15.0523C18.753 15.1719 18.8432 15.2775 18.9688 15.3528C19.0943 15.4281 19.2481 15.4689 19.4063 15.4688H19.0469C18.9516 15.4688 18.8602 15.4984 18.7928 15.5511C18.7254 15.6039 18.6876 15.6754 18.6876 15.75C18.6876 15.8246 18.7254 15.8961 18.7928 15.9489C18.8602 16.0016 18.9516 16.0312 19.0469 16.0312C19.0469 16.1058 19.0848 16.1774 19.1522 16.2301C19.2196 16.2829 19.311 16.3125 19.4063 16.3125C19.5016 16.3125 19.593 16.2829 19.6604 16.2301C19.7278 16.1774 19.7657 16.1058 19.7657 16.0312V15.9551C19.9027 15.8933 20.0098 15.7978 20.0704 15.6834C20.1309 15.5691 20.1416 15.4423 20.1006 15.3227C20.0596 15.2031 19.9694 15.0975 19.8438 15.0222C19.7183 14.9469 19.5645 14.9061 19.4063 14.9062H19.7657C19.861 14.9062 19.9524 14.8766 20.0198 14.8239C20.0872 14.7711 20.1251 14.6996 20.1251 14.625C20.1251 14.5504 20.0872 14.4789 20.0198 14.4261C19.9524 14.3734 19.861 14.3438 19.7657 14.3438C19.7657 14.2692 19.7278 14.1976 19.6604 14.1449C19.593 14.0921 19.5016 14.0625 19.4063 14.0625C19.311 14.0625 19.2196 14.0921 19.1522 14.1449C19.0848 14.1976 19.0469 14.2692 19.0469 14.3438Z" fill="#161D6F" fill-opacity="0.85"/>
</svg>
