<svg width="150" height="150" viewBox="0 0 150 150" fill="none" xmlns="http://www.w3.org/2000/svg">
<g clip-path="url(#clip0_1551_320)">
<rect width="150" height="150" rx="75" fill="white"/>
<rect x="-10" width="152.211" height="20" fill="#FF0000"/>
<rect x="-10" y="36" width="195.809" height="20" fill="#FF0000"/>
<rect x="-10" y="72" width="195.809" height="20" fill="#FF0000"/>
<rect x="-10" y="108" width="195.809" height="20" fill="#FF0000"/>
<rect x="-10" y="144" width="195.809" height="20" fill="#FF0000"/>
<rect width="75" height="75" fill="#0652E7"/>
<path d="M7.89163 65.5L8.78968 68.2639H11.6959L9.34471 69.9721L10.2428 72.7361L7.89163 71.0279L5.54049 72.7361L6.43854 69.9721L4.0874 68.2639H6.99357L7.89163 65.5Z" fill="white"/>
<path d="M7.89163 65.5L8.78968 68.2639H11.6959L9.34471 69.9721L10.2428 72.7361L7.89163 71.0279L5.54049 72.7361L6.43854 69.9721L4.0874 68.2639H6.99357L7.89163 65.5Z" fill="white"/>
<path d="M7.89163 65.5L8.78968 68.2639H11.6959L9.34471 69.9721L10.2428 72.7361L7.89163 71.0279L5.54049 72.7361L6.43854 69.9721L4.0874 68.2639H6.99357L7.89163 65.5Z" fill="white"/>
<path d="M19.6958 65.5L20.5939 68.2639H23.5L21.1489 69.9721L22.0469 72.7361L19.6958 71.0279L17.3447 72.7361L18.2427 69.9721L15.8916 68.2639H18.7977L19.6958 65.5Z" fill="white"/>
<path d="M19.6958 65.5L20.5939 68.2639H23.5L21.1489 69.9721L22.0469 72.7361L19.6958 71.0279L17.3447 72.7361L18.2427 69.9721L15.8916 68.2639H18.7977L19.6958 65.5Z" fill="white"/>
<path d="M19.6958 65.5L20.5939 68.2639H23.5L21.1489 69.9721L22.0469 72.7361L19.6958 71.0279L17.3447 72.7361L18.2427 69.9721L15.8916 68.2639H18.7977L19.6958 65.5Z" fill="white"/>
<path d="M31.5 65.5L32.3981 68.2639H35.3043L32.9531 69.9721L33.8512 72.7361L31.5 71.0279L29.1489 72.7361L30.0469 69.9721L27.6958 68.2639H30.602L31.5 65.5Z" fill="white"/>
<path d="M31.5 65.5L32.3981 68.2639H35.3043L32.9531 69.9721L33.8512 72.7361L31.5 71.0279L29.1489 72.7361L30.0469 69.9721L27.6958 68.2639H30.602L31.5 65.5Z" fill="white"/>
<path d="M31.5 65.5L32.3981 68.2639H35.3043L32.9531 69.9721L33.8512 72.7361L31.5 71.0279L29.1489 72.7361L30.0469 69.9721L27.6958 68.2639H30.602L31.5 65.5Z" fill="white"/>
<path d="M43.3042 65.5L44.2023 68.2639H47.1084L44.7573 69.9721L45.6553 72.7361L43.3042 71.0279L40.9531 72.7361L41.8511 69.9721L39.5 68.2639H42.4061L43.3042 65.5Z" fill="white"/>
<path d="M43.3042 65.5L44.2023 68.2639H47.1084L44.7573 69.9721L45.6553 72.7361L43.3042 71.0279L40.9531 72.7361L41.8511 69.9721L39.5 68.2639H42.4061L43.3042 65.5Z" fill="white"/>
<path d="M43.3042 65.5L44.2023 68.2639H47.1084L44.7573 69.9721L45.6553 72.7361L43.3042 71.0279L40.9531 72.7361L41.8511 69.9721L39.5 68.2639H42.4061L43.3042 65.5Z" fill="white"/>
<path d="M55.1084 65.5L56.0065 68.2639H58.9127L56.5615 69.9721L57.4596 72.7361L55.1084 71.0279L52.7573 72.7361L53.6553 69.9721L51.3042 68.2639H54.2104L55.1084 65.5Z" fill="white"/>
<path d="M55.1084 65.5L56.0065 68.2639H58.9127L56.5615 69.9721L57.4596 72.7361L55.1084 71.0279L52.7573 72.7361L53.6553 69.9721L51.3042 68.2639H54.2104L55.1084 65.5Z" fill="white"/>
<path d="M55.1084 65.5L56.0065 68.2639H58.9127L56.5615 69.9721L57.4596 72.7361L55.1084 71.0279L52.7573 72.7361L53.6553 69.9721L51.3042 68.2639H54.2104L55.1084 65.5Z" fill="white"/>
<path d="M66.9126 65.5L67.8107 68.2639H70.7168L68.3657 69.9721L69.2637 72.7361L66.9126 71.0279L64.5615 72.7361L65.4595 69.9721L63.1084 68.2639H66.0145L66.9126 65.5Z" fill="white"/>
<path d="M66.9126 65.5L67.8107 68.2639H70.7168L68.3657 69.9721L69.2637 72.7361L66.9126 71.0279L64.5615 72.7361L65.4595 69.9721L63.1084 68.2639H66.0145L66.9126 65.5Z" fill="white"/>
<path d="M66.9126 65.5L67.8107 68.2639H70.7168L68.3657 69.9721L69.2637 72.7361L66.9126 71.0279L64.5615 72.7361L65.4595 69.9721L63.1084 68.2639H66.0145L66.9126 65.5Z" fill="white"/>
<path d="M13.8916 57.5L14.7897 60.2639H17.6959L15.3447 61.9721L16.2428 64.7361L13.8916 63.0279L11.5405 64.7361L12.4385 61.9721L10.0874 60.2639H12.9936L13.8916 57.5Z" fill="white"/>
<path d="M13.8916 57.5L14.7897 60.2639H17.6959L15.3447 61.9721L16.2428 64.7361L13.8916 63.0279L11.5405 64.7361L12.4385 61.9721L10.0874 60.2639H12.9936L13.8916 57.5Z" fill="white"/>
<path d="M13.8916 57.5L14.7897 60.2639H17.6959L15.3447 61.9721L16.2428 64.7361L13.8916 63.0279L11.5405 64.7361L12.4385 61.9721L10.0874 60.2639H12.9936L13.8916 57.5Z" fill="white"/>
<path d="M25.6958 57.5L26.5939 60.2639H29.5L27.1489 61.9721L28.0469 64.7361L25.6958 63.0279L23.3447 64.7361L24.2427 61.9721L21.8916 60.2639H24.7977L25.6958 57.5Z" fill="white"/>
<path d="M25.6958 57.5L26.5939 60.2639H29.5L27.1489 61.9721L28.0469 64.7361L25.6958 63.0279L23.3447 64.7361L24.2427 61.9721L21.8916 60.2639H24.7977L25.6958 57.5Z" fill="white"/>
<path d="M25.6958 57.5L26.5939 60.2639H29.5L27.1489 61.9721L28.0469 64.7361L25.6958 63.0279L23.3447 64.7361L24.2427 61.9721L21.8916 60.2639H24.7977L25.6958 57.5Z" fill="white"/>
<path d="M37.5 57.5L38.3981 60.2639H41.3043L38.9531 61.9721L39.8512 64.7361L37.5 63.0279L35.1489 64.7361L36.0469 61.9721L33.6958 60.2639H36.602L37.5 57.5Z" fill="white"/>
<path d="M37.5 57.5L38.3981 60.2639H41.3043L38.9531 61.9721L39.8512 64.7361L37.5 63.0279L35.1489 64.7361L36.0469 61.9721L33.6958 60.2639H36.602L37.5 57.5Z" fill="white"/>
<path d="M37.5 57.5L38.3981 60.2639H41.3043L38.9531 61.9721L39.8512 64.7361L37.5 63.0279L35.1489 64.7361L36.0469 61.9721L33.6958 60.2639H36.602L37.5 57.5Z" fill="white"/>
<path d="M49.3042 57.5L50.2023 60.2639H53.1084L50.7573 61.9721L51.6553 64.7361L49.3042 63.0279L46.9531 64.7361L47.8511 61.9721L45.5 60.2639H48.4061L49.3042 57.5Z" fill="white"/>
<path d="M49.3042 57.5L50.2023 60.2639H53.1084L50.7573 61.9721L51.6553 64.7361L49.3042 63.0279L46.9531 64.7361L47.8511 61.9721L45.5 60.2639H48.4061L49.3042 57.5Z" fill="white"/>
<path d="M49.3042 57.5L50.2023 60.2639H53.1084L50.7573 61.9721L51.6553 64.7361L49.3042 63.0279L46.9531 64.7361L47.8511 61.9721L45.5 60.2639H48.4061L49.3042 57.5Z" fill="white"/>
<path d="M61.1084 57.5L62.0065 60.2639H64.9127L62.5615 61.9721L63.4596 64.7361L61.1084 63.0279L58.7573 64.7361L59.6553 61.9721L57.3042 60.2639H60.2104L61.1084 57.5Z" fill="white"/>
<path d="M61.1084 57.5L62.0065 60.2639H64.9127L62.5615 61.9721L63.4596 64.7361L61.1084 63.0279L58.7573 64.7361L59.6553 61.9721L57.3042 60.2639H60.2104L61.1084 57.5Z" fill="white"/>
<path d="M61.1084 57.5L62.0065 60.2639H64.9127L62.5615 61.9721L63.4596 64.7361L61.1084 63.0279L58.7573 64.7361L59.6553 61.9721L57.3042 60.2639H60.2104L61.1084 57.5Z" fill="white"/>
<path d="M7.89163 49.5L8.78968 52.2639H11.6959L9.34471 53.9721L10.2428 56.7361L7.89163 55.0279L5.54049 56.7361L6.43854 53.9721L4.0874 52.2639H6.99357L7.89163 49.5Z" fill="white"/>
<path d="M7.89163 49.5L8.78968 52.2639H11.6959L9.34471 53.9721L10.2428 56.7361L7.89163 55.0279L5.54049 56.7361L6.43854 53.9721L4.0874 52.2639H6.99357L7.89163 49.5Z" fill="white"/>
<path d="M7.89163 49.5L8.78968 52.2639H11.6959L9.34471 53.9721L10.2428 56.7361L7.89163 55.0279L5.54049 56.7361L6.43854 53.9721L4.0874 52.2639H6.99357L7.89163 49.5Z" fill="white"/>
<path d="M19.6958 49.5L20.5939 52.2639H23.5L21.1489 53.9721L22.0469 56.7361L19.6958 55.0279L17.3447 56.7361L18.2427 53.9721L15.8916 52.2639H18.7977L19.6958 49.5Z" fill="white"/>
<path d="M19.6958 49.5L20.5939 52.2639H23.5L21.1489 53.9721L22.0469 56.7361L19.6958 55.0279L17.3447 56.7361L18.2427 53.9721L15.8916 52.2639H18.7977L19.6958 49.5Z" fill="white"/>
<path d="M19.6958 49.5L20.5939 52.2639H23.5L21.1489 53.9721L22.0469 56.7361L19.6958 55.0279L17.3447 56.7361L18.2427 53.9721L15.8916 52.2639H18.7977L19.6958 49.5Z" fill="white"/>
<path d="M31.5 49.5L32.3981 52.2639H35.3043L32.9531 53.9721L33.8512 56.7361L31.5 55.0279L29.1489 56.7361L30.0469 53.9721L27.6958 52.2639H30.602L31.5 49.5Z" fill="white"/>
<path d="M31.5 49.5L32.3981 52.2639H35.3043L32.9531 53.9721L33.8512 56.7361L31.5 55.0279L29.1489 56.7361L30.0469 53.9721L27.6958 52.2639H30.602L31.5 49.5Z" fill="white"/>
<path d="M31.5 49.5L32.3981 52.2639H35.3043L32.9531 53.9721L33.8512 56.7361L31.5 55.0279L29.1489 56.7361L30.0469 53.9721L27.6958 52.2639H30.602L31.5 49.5Z" fill="white"/>
<path d="M43.3042 49.5L44.2023 52.2639H47.1084L44.7573 53.9721L45.6553 56.7361L43.3042 55.0279L40.9531 56.7361L41.8511 53.9721L39.5 52.2639H42.4061L43.3042 49.5Z" fill="white"/>
<path d="M43.3042 49.5L44.2023 52.2639H47.1084L44.7573 53.9721L45.6553 56.7361L43.3042 55.0279L40.9531 56.7361L41.8511 53.9721L39.5 52.2639H42.4061L43.3042 49.5Z" fill="white"/>
<path d="M43.3042 49.5L44.2023 52.2639H47.1084L44.7573 53.9721L45.6553 56.7361L43.3042 55.0279L40.9531 56.7361L41.8511 53.9721L39.5 52.2639H42.4061L43.3042 49.5Z" fill="white"/>
<path d="M55.1084 49.5L56.0065 52.2639H58.9127L56.5615 53.9721L57.4596 56.7361L55.1084 55.0279L52.7573 56.7361L53.6553 53.9721L51.3042 52.2639H54.2104L55.1084 49.5Z" fill="white"/>
<path d="M55.1084 49.5L56.0065 52.2639H58.9127L56.5615 53.9721L57.4596 56.7361L55.1084 55.0279L52.7573 56.7361L53.6553 53.9721L51.3042 52.2639H54.2104L55.1084 49.5Z" fill="white"/>
<path d="M55.1084 49.5L56.0065 52.2639H58.9127L56.5615 53.9721L57.4596 56.7361L55.1084 55.0279L52.7573 56.7361L53.6553 53.9721L51.3042 52.2639H54.2104L55.1084 49.5Z" fill="white"/>
<path d="M66.9126 49.5L67.8107 52.2639H70.7168L68.3657 53.9721L69.2637 56.7361L66.9126 55.0279L64.5615 56.7361L65.4595 53.9721L63.1084 52.2639H66.0145L66.9126 49.5Z" fill="white"/>
<path d="M66.9126 49.5L67.8107 52.2639H70.7168L68.3657 53.9721L69.2637 56.7361L66.9126 55.0279L64.5615 56.7361L65.4595 53.9721L63.1084 52.2639H66.0145L66.9126 49.5Z" fill="white"/>
<path d="M66.9126 49.5L67.8107 52.2639H70.7168L68.3657 53.9721L69.2637 56.7361L66.9126 55.0279L64.5615 56.7361L65.4595 53.9721L63.1084 52.2639H66.0145L66.9126 49.5Z" fill="white"/>
<path d="M13.8916 41.5L14.7897 44.2639H17.6959L15.3447 45.9721L16.2428 48.7361L13.8916 47.0279L11.5405 48.7361L12.4385 45.9721L10.0874 44.2639H12.9936L13.8916 41.5Z" fill="white"/>
<path d="M13.8916 41.5L14.7897 44.2639H17.6959L15.3447 45.9721L16.2428 48.7361L13.8916 47.0279L11.5405 48.7361L12.4385 45.9721L10.0874 44.2639H12.9936L13.8916 41.5Z" fill="white"/>
<path d="M13.8916 41.5L14.7897 44.2639H17.6959L15.3447 45.9721L16.2428 48.7361L13.8916 47.0279L11.5405 48.7361L12.4385 45.9721L10.0874 44.2639H12.9936L13.8916 41.5Z" fill="white"/>
<path d="M25.6958 41.5L26.5939 44.2639H29.5L27.1489 45.9721L28.0469 48.7361L25.6958 47.0279L23.3447 48.7361L24.2427 45.9721L21.8916 44.2639H24.7977L25.6958 41.5Z" fill="white"/>
<path d="M25.6958 41.5L26.5939 44.2639H29.5L27.1489 45.9721L28.0469 48.7361L25.6958 47.0279L23.3447 48.7361L24.2427 45.9721L21.8916 44.2639H24.7977L25.6958 41.5Z" fill="white"/>
<path d="M25.6958 41.5L26.5939 44.2639H29.5L27.1489 45.9721L28.0469 48.7361L25.6958 47.0279L23.3447 48.7361L24.2427 45.9721L21.8916 44.2639H24.7977L25.6958 41.5Z" fill="white"/>
<path d="M37.5 41.5L38.3981 44.2639H41.3043L38.9531 45.9721L39.8512 48.7361L37.5 47.0279L35.1489 48.7361L36.0469 45.9721L33.6958 44.2639H36.602L37.5 41.5Z" fill="white"/>
<path d="M37.5 41.5L38.3981 44.2639H41.3043L38.9531 45.9721L39.8512 48.7361L37.5 47.0279L35.1489 48.7361L36.0469 45.9721L33.6958 44.2639H36.602L37.5 41.5Z" fill="white"/>
<path d="M37.5 41.5L38.3981 44.2639H41.3043L38.9531 45.9721L39.8512 48.7361L37.5 47.0279L35.1489 48.7361L36.0469 45.9721L33.6958 44.2639H36.602L37.5 41.5Z" fill="white"/>
<path d="M49.3042 41.5L50.2023 44.2639H53.1084L50.7573 45.9721L51.6553 48.7361L49.3042 47.0279L46.9531 48.7361L47.8511 45.9721L45.5 44.2639H48.4061L49.3042 41.5Z" fill="white"/>
<path d="M49.3042 41.5L50.2023 44.2639H53.1084L50.7573 45.9721L51.6553 48.7361L49.3042 47.0279L46.9531 48.7361L47.8511 45.9721L45.5 44.2639H48.4061L49.3042 41.5Z" fill="white"/>
<path d="M49.3042 41.5L50.2023 44.2639H53.1084L50.7573 45.9721L51.6553 48.7361L49.3042 47.0279L46.9531 48.7361L47.8511 45.9721L45.5 44.2639H48.4061L49.3042 41.5Z" fill="white"/>
<path d="M61.1084 41.5L62.0065 44.2639H64.9127L62.5615 45.9721L63.4596 48.7361L61.1084 47.0279L58.7573 48.7361L59.6553 45.9721L57.3042 44.2639H60.2104L61.1084 41.5Z" fill="white"/>
<path d="M61.1084 41.5L62.0065 44.2639H64.9127L62.5615 45.9721L63.4596 48.7361L61.1084 47.0279L58.7573 48.7361L59.6553 45.9721L57.3042 44.2639H60.2104L61.1084 41.5Z" fill="white"/>
<path d="M61.1084 41.5L62.0065 44.2639H64.9127L62.5615 45.9721L63.4596 48.7361L61.1084 47.0279L58.7573 48.7361L59.6553 45.9721L57.3042 44.2639H60.2104L61.1084 41.5Z" fill="white"/>
<path d="M7.89163 33.5L8.78968 36.2639H11.6959L9.34471 37.9721L10.2428 40.7361L7.89163 39.0279L5.54049 40.7361L6.43854 37.9721L4.0874 36.2639H6.99357L7.89163 33.5Z" fill="white"/>
<path d="M7.89163 33.5L8.78968 36.2639H11.6959L9.34471 37.9721L10.2428 40.7361L7.89163 39.0279L5.54049 40.7361L6.43854 37.9721L4.0874 36.2639H6.99357L7.89163 33.5Z" fill="white"/>
<path d="M7.89163 33.5L8.78968 36.2639H11.6959L9.34471 37.9721L10.2428 40.7361L7.89163 39.0279L5.54049 40.7361L6.43854 37.9721L4.0874 36.2639H6.99357L7.89163 33.5Z" fill="white"/>
<path d="M19.6958 33.5L20.5939 36.2639H23.5L21.1489 37.9721L22.0469 40.7361L19.6958 39.0279L17.3447 40.7361L18.2427 37.9721L15.8916 36.2639H18.7977L19.6958 33.5Z" fill="white"/>
<path d="M19.6958 33.5L20.5939 36.2639H23.5L21.1489 37.9721L22.0469 40.7361L19.6958 39.0279L17.3447 40.7361L18.2427 37.9721L15.8916 36.2639H18.7977L19.6958 33.5Z" fill="white"/>
<path d="M19.6958 33.5L20.5939 36.2639H23.5L21.1489 37.9721L22.0469 40.7361L19.6958 39.0279L17.3447 40.7361L18.2427 37.9721L15.8916 36.2639H18.7977L19.6958 33.5Z" fill="white"/>
<path d="M31.5 33.5L32.3981 36.2639H35.3043L32.9531 37.9721L33.8512 40.7361L31.5 39.0279L29.1489 40.7361L30.0469 37.9721L27.6958 36.2639H30.602L31.5 33.5Z" fill="white"/>
<path d="M31.5 33.5L32.3981 36.2639H35.3043L32.9531 37.9721L33.8512 40.7361L31.5 39.0279L29.1489 40.7361L30.0469 37.9721L27.6958 36.2639H30.602L31.5 33.5Z" fill="white"/>
<path d="M31.5 33.5L32.3981 36.2639H35.3043L32.9531 37.9721L33.8512 40.7361L31.5 39.0279L29.1489 40.7361L30.0469 37.9721L27.6958 36.2639H30.602L31.5 33.5Z" fill="white"/>
<path d="M43.3042 33.5L44.2023 36.2639H47.1084L44.7573 37.9721L45.6553 40.7361L43.3042 39.0279L40.9531 40.7361L41.8511 37.9721L39.5 36.2639H42.4061L43.3042 33.5Z" fill="white"/>
<path d="M43.3042 33.5L44.2023 36.2639H47.1084L44.7573 37.9721L45.6553 40.7361L43.3042 39.0279L40.9531 40.7361L41.8511 37.9721L39.5 36.2639H42.4061L43.3042 33.5Z" fill="white"/>
<path d="M43.3042 33.5L44.2023 36.2639H47.1084L44.7573 37.9721L45.6553 40.7361L43.3042 39.0279L40.9531 40.7361L41.8511 37.9721L39.5 36.2639H42.4061L43.3042 33.5Z" fill="white"/>
<path d="M55.1084 33.5L56.0065 36.2639H58.9127L56.5615 37.9721L57.4596 40.7361L55.1084 39.0279L52.7573 40.7361L53.6553 37.9721L51.3042 36.2639H54.2104L55.1084 33.5Z" fill="white"/>
<path d="M55.1084 33.5L56.0065 36.2639H58.9127L56.5615 37.9721L57.4596 40.7361L55.1084 39.0279L52.7573 40.7361L53.6553 37.9721L51.3042 36.2639H54.2104L55.1084 33.5Z" fill="white"/>
<path d="M55.1084 33.5L56.0065 36.2639H58.9127L56.5615 37.9721L57.4596 40.7361L55.1084 39.0279L52.7573 40.7361L53.6553 37.9721L51.3042 36.2639H54.2104L55.1084 33.5Z" fill="white"/>
<path d="M66.9126 33.5L67.8107 36.2639H70.7168L68.3657 37.9721L69.2637 40.7361L66.9126 39.0279L64.5615 40.7361L65.4595 37.9721L63.1084 36.2639H66.0145L66.9126 33.5Z" fill="white"/>
<path d="M66.9126 33.5L67.8107 36.2639H70.7168L68.3657 37.9721L69.2637 40.7361L66.9126 39.0279L64.5615 40.7361L65.4595 37.9721L63.1084 36.2639H66.0145L66.9126 33.5Z" fill="white"/>
<path d="M66.9126 33.5L67.8107 36.2639H70.7168L68.3657 37.9721L69.2637 40.7361L66.9126 39.0279L64.5615 40.7361L65.4595 37.9721L63.1084 36.2639H66.0145L66.9126 33.5Z" fill="white"/>
<path d="M13.8916 25.5L14.7897 28.2639H17.6959L15.3447 29.9721L16.2428 32.7361L13.8916 31.0279L11.5405 32.7361L12.4385 29.9721L10.0874 28.2639H12.9936L13.8916 25.5Z" fill="white"/>
<path d="M13.8916 25.5L14.7897 28.2639H17.6959L15.3447 29.9721L16.2428 32.7361L13.8916 31.0279L11.5405 32.7361L12.4385 29.9721L10.0874 28.2639H12.9936L13.8916 25.5Z" fill="white"/>
<path d="M13.8916 25.5L14.7897 28.2639H17.6959L15.3447 29.9721L16.2428 32.7361L13.8916 31.0279L11.5405 32.7361L12.4385 29.9721L10.0874 28.2639H12.9936L13.8916 25.5Z" fill="white"/>
<path d="M25.6958 25.5L26.5939 28.2639H29.5L27.1489 29.9721L28.0469 32.7361L25.6958 31.0279L23.3447 32.7361L24.2427 29.9721L21.8916 28.2639H24.7977L25.6958 25.5Z" fill="white"/>
<path d="M25.6958 25.5L26.5939 28.2639H29.5L27.1489 29.9721L28.0469 32.7361L25.6958 31.0279L23.3447 32.7361L24.2427 29.9721L21.8916 28.2639H24.7977L25.6958 25.5Z" fill="white"/>
<path d="M25.6958 25.5L26.5939 28.2639H29.5L27.1489 29.9721L28.0469 32.7361L25.6958 31.0279L23.3447 32.7361L24.2427 29.9721L21.8916 28.2639H24.7977L25.6958 25.5Z" fill="white"/>
<path d="M37.5 25.5L38.3981 28.2639H41.3043L38.9531 29.9721L39.8512 32.7361L37.5 31.0279L35.1489 32.7361L36.0469 29.9721L33.6958 28.2639H36.602L37.5 25.5Z" fill="white"/>
<path d="M37.5 25.5L38.3981 28.2639H41.3043L38.9531 29.9721L39.8512 32.7361L37.5 31.0279L35.1489 32.7361L36.0469 29.9721L33.6958 28.2639H36.602L37.5 25.5Z" fill="white"/>
<path d="M37.5 25.5L38.3981 28.2639H41.3043L38.9531 29.9721L39.8512 32.7361L37.5 31.0279L35.1489 32.7361L36.0469 29.9721L33.6958 28.2639H36.602L37.5 25.5Z" fill="white"/>
<path d="M49.3042 25.5L50.2023 28.2639H53.1084L50.7573 29.9721L51.6553 32.7361L49.3042 31.0279L46.9531 32.7361L47.8511 29.9721L45.5 28.2639H48.4061L49.3042 25.5Z" fill="white"/>
<path d="M49.3042 25.5L50.2023 28.2639H53.1084L50.7573 29.9721L51.6553 32.7361L49.3042 31.0279L46.9531 32.7361L47.8511 29.9721L45.5 28.2639H48.4061L49.3042 25.5Z" fill="white"/>
<path d="M49.3042 25.5L50.2023 28.2639H53.1084L50.7573 29.9721L51.6553 32.7361L49.3042 31.0279L46.9531 32.7361L47.8511 29.9721L45.5 28.2639H48.4061L49.3042 25.5Z" fill="white"/>
<path d="M61.1084 25.5L62.0065 28.2639H64.9127L62.5615 29.9721L63.4596 32.7361L61.1084 31.0279L58.7573 32.7361L59.6553 29.9721L57.3042 28.2639H60.2104L61.1084 25.5Z" fill="white"/>
<path d="M61.1084 25.5L62.0065 28.2639H64.9127L62.5615 29.9721L63.4596 32.7361L61.1084 31.0279L58.7573 32.7361L59.6553 29.9721L57.3042 28.2639H60.2104L61.1084 25.5Z" fill="white"/>
<path d="M61.1084 25.5L62.0065 28.2639H64.9127L62.5615 29.9721L63.4596 32.7361L61.1084 31.0279L58.7573 32.7361L59.6553 29.9721L57.3042 28.2639H60.2104L61.1084 25.5Z" fill="white"/>
<path d="M7.89163 17.5L8.78968 20.2639H11.6959L9.34471 21.9721L10.2428 24.7361L7.89163 23.0279L5.54049 24.7361L6.43854 21.9721L4.0874 20.2639H6.99357L7.89163 17.5Z" fill="white"/>
<path d="M7.89163 17.5L8.78968 20.2639H11.6959L9.34471 21.9721L10.2428 24.7361L7.89163 23.0279L5.54049 24.7361L6.43854 21.9721L4.0874 20.2639H6.99357L7.89163 17.5Z" fill="white"/>
<path d="M7.89163 17.5L8.78968 20.2639H11.6959L9.34471 21.9721L10.2428 24.7361L7.89163 23.0279L5.54049 24.7361L6.43854 21.9721L4.0874 20.2639H6.99357L7.89163 17.5Z" fill="white"/>
<path d="M19.6958 17.5L20.5939 20.2639H23.5L21.1489 21.9721L22.0469 24.7361L19.6958 23.0279L17.3447 24.7361L18.2427 21.9721L15.8916 20.2639H18.7977L19.6958 17.5Z" fill="white"/>
<path d="M19.6958 17.5L20.5939 20.2639H23.5L21.1489 21.9721L22.0469 24.7361L19.6958 23.0279L17.3447 24.7361L18.2427 21.9721L15.8916 20.2639H18.7977L19.6958 17.5Z" fill="white"/>
<path d="M19.6958 17.5L20.5939 20.2639H23.5L21.1489 21.9721L22.0469 24.7361L19.6958 23.0279L17.3447 24.7361L18.2427 21.9721L15.8916 20.2639H18.7977L19.6958 17.5Z" fill="white"/>
<path d="M31.5 17.5L32.3981 20.2639H35.3043L32.9531 21.9721L33.8512 24.7361L31.5 23.0279L29.1489 24.7361L30.0469 21.9721L27.6958 20.2639H30.602L31.5 17.5Z" fill="white"/>
<path d="M31.5 17.5L32.3981 20.2639H35.3043L32.9531 21.9721L33.8512 24.7361L31.5 23.0279L29.1489 24.7361L30.0469 21.9721L27.6958 20.2639H30.602L31.5 17.5Z" fill="white"/>
<path d="M31.5 17.5L32.3981 20.2639H35.3043L32.9531 21.9721L33.8512 24.7361L31.5 23.0279L29.1489 24.7361L30.0469 21.9721L27.6958 20.2639H30.602L31.5 17.5Z" fill="white"/>
<path d="M43.3042 17.5L44.2023 20.2639H47.1084L44.7573 21.9721L45.6553 24.7361L43.3042 23.0279L40.9531 24.7361L41.8511 21.9721L39.5 20.2639H42.4061L43.3042 17.5Z" fill="white"/>
<path d="M43.3042 17.5L44.2023 20.2639H47.1084L44.7573 21.9721L45.6553 24.7361L43.3042 23.0279L40.9531 24.7361L41.8511 21.9721L39.5 20.2639H42.4061L43.3042 17.5Z" fill="white"/>
<path d="M43.3042 17.5L44.2023 20.2639H47.1084L44.7573 21.9721L45.6553 24.7361L43.3042 23.0279L40.9531 24.7361L41.8511 21.9721L39.5 20.2639H42.4061L43.3042 17.5Z" fill="white"/>
<path d="M55.1084 17.5L56.0065 20.2639H58.9127L56.5615 21.9721L57.4596 24.7361L55.1084 23.0279L52.7573 24.7361L53.6553 21.9721L51.3042 20.2639H54.2104L55.1084 17.5Z" fill="white"/>
<path d="M55.1084 17.5L56.0065 20.2639H58.9127L56.5615 21.9721L57.4596 24.7361L55.1084 23.0279L52.7573 24.7361L53.6553 21.9721L51.3042 20.2639H54.2104L55.1084 17.5Z" fill="white"/>
<path d="M55.1084 17.5L56.0065 20.2639H58.9127L56.5615 21.9721L57.4596 24.7361L55.1084 23.0279L52.7573 24.7361L53.6553 21.9721L51.3042 20.2639H54.2104L55.1084 17.5Z" fill="white"/>
<path d="M66.9126 17.5L67.8107 20.2639H70.7168L68.3657 21.9721L69.2637 24.7361L66.9126 23.0279L64.5615 24.7361L65.4595 21.9721L63.1084 20.2639H66.0145L66.9126 17.5Z" fill="white"/>
<path d="M66.9126 17.5L67.8107 20.2639H70.7168L68.3657 21.9721L69.2637 24.7361L66.9126 23.0279L64.5615 24.7361L65.4595 21.9721L63.1084 20.2639H66.0145L66.9126 17.5Z" fill="white"/>
<path d="M66.9126 17.5L67.8107 20.2639H70.7168L68.3657 21.9721L69.2637 24.7361L66.9126 23.0279L64.5615 24.7361L65.4595 21.9721L63.1084 20.2639H66.0145L66.9126 17.5Z" fill="white"/>
<path d="M13.8916 9.5L14.7897 12.2639H17.6959L15.3447 13.9721L16.2428 16.7361L13.8916 15.0279L11.5405 16.7361L12.4385 13.9721L10.0874 12.2639H12.9936L13.8916 9.5Z" fill="white"/>
<path d="M13.8916 9.5L14.7897 12.2639H17.6959L15.3447 13.9721L16.2428 16.7361L13.8916 15.0279L11.5405 16.7361L12.4385 13.9721L10.0874 12.2639H12.9936L13.8916 9.5Z" fill="white"/>
<path d="M13.8916 9.5L14.7897 12.2639H17.6959L15.3447 13.9721L16.2428 16.7361L13.8916 15.0279L11.5405 16.7361L12.4385 13.9721L10.0874 12.2639H12.9936L13.8916 9.5Z" fill="white"/>
<path d="M25.6958 9.5L26.5939 12.2639H29.5L27.1489 13.9721L28.0469 16.7361L25.6958 15.0279L23.3447 16.7361L24.2427 13.9721L21.8916 12.2639H24.7977L25.6958 9.5Z" fill="white"/>
<path d="M25.6958 9.5L26.5939 12.2639H29.5L27.1489 13.9721L28.0469 16.7361L25.6958 15.0279L23.3447 16.7361L24.2427 13.9721L21.8916 12.2639H24.7977L25.6958 9.5Z" fill="white"/>
<path d="M25.6958 9.5L26.5939 12.2639H29.5L27.1489 13.9721L28.0469 16.7361L25.6958 15.0279L23.3447 16.7361L24.2427 13.9721L21.8916 12.2639H24.7977L25.6958 9.5Z" fill="white"/>
<path d="M37.5 9.5L38.3981 12.2639H41.3043L38.9531 13.9721L39.8512 16.7361L37.5 15.0279L35.1489 16.7361L36.0469 13.9721L33.6958 12.2639H36.602L37.5 9.5Z" fill="white"/>
<path d="M37.5 9.5L38.3981 12.2639H41.3043L38.9531 13.9721L39.8512 16.7361L37.5 15.0279L35.1489 16.7361L36.0469 13.9721L33.6958 12.2639H36.602L37.5 9.5Z" fill="white"/>
<path d="M37.5 9.5L38.3981 12.2639H41.3043L38.9531 13.9721L39.8512 16.7361L37.5 15.0279L35.1489 16.7361L36.0469 13.9721L33.6958 12.2639H36.602L37.5 9.5Z" fill="white"/>
<path d="M49.3042 9.5L50.2023 12.2639H53.1084L50.7573 13.9721L51.6553 16.7361L49.3042 15.0279L46.9531 16.7361L47.8511 13.9721L45.5 12.2639H48.4061L49.3042 9.5Z" fill="white"/>
<path d="M49.3042 9.5L50.2023 12.2639H53.1084L50.7573 13.9721L51.6553 16.7361L49.3042 15.0279L46.9531 16.7361L47.8511 13.9721L45.5 12.2639H48.4061L49.3042 9.5Z" fill="white"/>
<path d="M49.3042 9.5L50.2023 12.2639H53.1084L50.7573 13.9721L51.6553 16.7361L49.3042 15.0279L46.9531 16.7361L47.8511 13.9721L45.5 12.2639H48.4061L49.3042 9.5Z" fill="white"/>
<path d="M61.1084 9.5L62.0065 12.2639H64.9127L62.5615 13.9721L63.4596 16.7361L61.1084 15.0279L58.7573 16.7361L59.6553 13.9721L57.3042 12.2639H60.2104L61.1084 9.5Z" fill="white"/>
<path d="M61.1084 9.5L62.0065 12.2639H64.9127L62.5615 13.9721L63.4596 16.7361L61.1084 15.0279L58.7573 16.7361L59.6553 13.9721L57.3042 12.2639H60.2104L61.1084 9.5Z" fill="white"/>
<path d="M61.1084 9.5L62.0065 12.2639H64.9127L62.5615 13.9721L63.4596 16.7361L61.1084 15.0279L58.7573 16.7361L59.6553 13.9721L57.3042 12.2639H60.2104L61.1084 9.5Z" fill="white"/>
<path d="M68.7168 2.76416L69.6149 5.52809H72.521L70.1699 7.2363L71.068 10.0002L68.7168 8.29202L66.3657 10.0002L67.2637 7.2363L64.9126 5.52809H67.8188L68.7168 2.76416Z" fill="white"/>
<path d="M68.7168 2.76416L69.6149 5.52809H72.521L70.1699 7.2363L71.068 10.0002L68.7168 8.29202L66.3657 10.0002L67.2637 7.2363L64.9126 5.52809H67.8188L68.7168 2.76416Z" fill="white"/>
<path d="M68.7168 2.76416L69.6149 5.52809H72.521L70.1699 7.2363L71.068 10.0002L68.7168 8.29202L66.3657 10.0002L67.2637 7.2363L64.9126 5.52809H67.8188L68.7168 2.76416Z" fill="white"/>
<path d="M55.1084 2.26416L56.0065 5.02809H58.9127L56.5615 6.7363L57.4596 9.50023L55.1084 7.79202L52.7573 9.50023L53.6553 6.7363L51.3042 5.02809H54.2104L55.1084 2.26416Z" fill="white"/>
<path d="M55.1084 2.26416L56.0065 5.02809H58.9127L56.5615 6.7363L57.4596 9.50023L55.1084 7.79202L52.7573 9.50023L53.6553 6.7363L51.3042 5.02809H54.2104L55.1084 2.26416Z" fill="white"/>
<path d="M55.1084 2.26416L56.0065 5.02809H58.9127L56.5615 6.7363L57.4596 9.50023L55.1084 7.79202L52.7573 9.50023L53.6553 6.7363L51.3042 5.02809H54.2104L55.1084 2.26416Z" fill="white"/>
</g>
<defs>
<clipPath id="clip0_1551_320">
<rect width="150" height="150" rx="75" fill="white"/>
</clipPath>
</defs>
</svg>
