<svg width="15" height="15" viewBox="0 0 15 15" fill="none" xmlns="http://www.w3.org/2000/svg">
<path d="M7.38 7.5C8.32484 7.5 9.23098 7.12467 9.89907 6.45657C10.5672 5.78847 10.9425 4.88233 10.9425 3.9375C10.9425 2.99267 10.5672 2.08653 9.89907 1.41843C9.23098 0.750334 8.32484 0.375 7.38 0.375C6.43517 0.375 5.52904 0.750334 4.86094 1.41843C4.19284 2.08653 3.8175 2.99267 3.8175 3.9375C3.8175 4.88233 4.19284 5.78847 4.86094 6.45657C5.52904 7.12467 6.43517 7.5 7.38 7.5ZM9.755 3.9375C9.755 4.56739 9.50478 5.17148 9.05938 5.61688C8.61398 6.06228 8.00989 6.3125 7.38 6.3125C6.75012 6.3125 6.14603 6.06228 5.70063 5.61688C5.25523 5.17148 5.005 4.56739 5.005 3.9375C5.005 3.30761 5.25523 2.70352 5.70063 2.25812C6.14603 1.81272 6.75012 1.5625 7.38 1.5625C8.00989 1.5625 8.61398 1.81272 9.05938 2.25812C9.50478 2.70352 9.755 3.30761 9.755 3.9375ZM14.505 13.4375C14.505 14.625 13.3175 14.625 13.3175 14.625H1.4425C1.4425 14.625 0.255005 14.625 0.255005 13.4375C0.255005 12.25 1.4425 8.6875 7.38 8.6875C13.3175 8.6875 14.505 12.25 14.505 13.4375ZM13.3175 13.4328C13.3163 13.1406 13.1346 12.2619 12.3295 11.4567C11.5553 10.6825 10.0982 9.875 7.38 9.875C4.66063 9.875 3.20475 10.6825 2.4305 11.4567C1.62538 12.2619 1.44488 13.1406 1.4425 13.4328H13.3175Z" fill="#161D6F" fill-opacity="0.85"/>
</svg>
