<svg width="34" height="35" viewBox="0 0 34 35" fill="none" xmlns="http://www.w3.org/2000/svg">
<path d="M33.1329 9.6C23.9064 -3.20234 9.5566 -3.19766 0.333783 9.6C-0.0130489 10.0812 -0.019819 10.8961 0.315556 11.3953L2.09867 14.0492C2.41842 14.5258 2.93294 14.5359 3.26519 14.0789C10.8643 3.63516 22.6013 3.63281 30.202 14.0789C30.5342 14.5359 31.0487 14.525 31.3685 14.0492L33.1516 11.3953C33.4865 10.8961 33.4797 10.0812 33.1329 9.6ZM16.7333 25C14.8924 25 13.4004 27.2383 13.4004 30C13.4004 32.7617 14.8924 35 16.7333 35C18.5742 35 20.0662 32.7617 20.0662 30C20.0662 27.2383 18.5742 25 16.7333 25ZM27.2877 18.4695C21.2854 10.5063 12.1745 10.5148 6.17889 18.4695C5.81956 18.9461 5.80811 19.7734 6.14921 20.2781L7.94274 22.9336C8.2552 23.3961 8.75826 23.4273 9.09103 22.9961C13.4629 17.3266 20.0136 17.3391 24.3751 22.9961C24.7079 23.4273 25.2109 23.3969 25.5234 22.9336L27.3169 20.2781C27.6585 19.7734 27.6466 18.9453 27.2877 18.4695Z" fill="#161D6F" fill-opacity="0.85"/>
</svg>
