<svg width="30" height="30" viewBox="0 0 30 30" fill="none" xmlns="http://www.w3.org/2000/svg">
<rect width="30" height="30" rx="6" fill="#161D6F" fill-opacity="0.7"/>
<path d="M22.8807 12.0857C18.7283 7.97068 12.2701 7.97218 8.11928 12.0857C7.96318 12.2404 7.96014 12.5023 8.11107 12.6628L8.91357 13.5158C9.05748 13.669 9.28904 13.6723 9.43857 13.5254C12.8586 10.1684 18.1409 10.1677 21.5616 13.5254C21.7112 13.6723 21.9427 13.6687 22.0866 13.5158L22.8891 12.6628C23.0398 12.5023 23.0368 12.2404 22.8807 12.0857ZM15.5 17.0357C14.6715 17.0357 14 17.7552 14 18.6429C14 19.5306 14.6715 20.25 15.5 20.25C16.3285 20.25 17 19.5306 17 18.6429C17 17.7552 16.3285 17.0357 15.5 17.0357ZM20.2501 14.9366C17.5487 12.377 13.4483 12.3798 10.7499 14.9366C10.5882 15.0898 10.583 15.3557 10.7365 15.518L11.5437 16.3715C11.6844 16.5202 11.9108 16.5302 12.0605 16.3916C14.0281 14.5693 16.9763 14.5733 18.9392 16.3916C19.089 16.5302 19.3154 16.5204 19.456 16.3715L20.2632 15.518C20.4169 15.3557 20.4115 15.0896 20.2501 14.9366Z" fill="white" fill-opacity="0.85"/>
</svg>
